<?xml version="1.0" encoding="utf-8" standalone="no"?>
<!DOCTYPE svg PUBLIC "-//W3C//DTD SVG 1.1//EN"
  "http://www.w3.org/Graphics/SVG/1.1/DTD/svg11.dtd">
<svg xmlns:xlink="http://www.w3.org/1999/xlink" width="535.600998pt" height="465.418203pt" viewBox="0 0 535.600998 465.418203" xmlns="http://www.w3.org/2000/svg" version="1.1">
 <metadata>
  <rdf:RDF xmlns:dc="http://purl.org/dc/elements/1.1/" xmlns:cc="http://creativecommons.org/ns#" xmlns:rdf="http://www.w3.org/1999/02/22-rdf-syntax-ns#">
   <cc:Work>
    <dc:type rdf:resource="http://purl.org/dc/dcmitype/StillImage"/>
    <dc:date>2026-06-14T15:02:19.572052</dc:date>
    <dc:format>image/svg+xml</dc:format>
    <dc:creator>
     <cc:Agent>
      <dc:title>Matplotlib v3.10.8, https://matplotlib.org/</dc:title>
     </cc:Agent>
    </dc:creator>
   </cc:Work>
  </rdf:RDF>
 </metadata>
 <defs>
  <style type="text/css">*{stroke-linejoin: round; stroke-linecap: butt}</style>
 </defs>
 <g id="figure_1">
  <g id="patch_1">
   <path d="M 0 465.418203 
L 535.600998 465.418203 
L 535.600998 0 
L 0 0 
z
" style="fill: #ffffff"/>
  </g>
  <g id="axes_1">
   <g id="patch_2">
    <path d="M 113.101398 427.378047 
L 528.400998 427.378047 
L 528.400998 28.698047 
L 113.101398 28.698047 
z
" style="fill: #ffffff"/>
   </g>
   <g id="matplotlib.axis_1">
    <g id="xtick_1">
     <g id="line2d_1">
      <defs>
       <path id="mba86ff33ed" d="M 0 0 
L 0 3.5 
" style="stroke: #555555; stroke-width: 0.8"/>
      </defs>
      <g>
       <use xlink:href="#mba86ff33ed" x="169.222966" y="427.378047" style="fill: #555555; stroke: #555555; stroke-width: 0.8"/>
      </g>
     </g>
     <g id="text_1">
      <!-- 0.2 -->
      <g transform="translate(161.668981 441.596562) scale(0.095 -0.095)">
       <defs>
        <path id="DejaVuSans-30" d="M 2034 4250 
Q 1547 4250 1301 3770 
Q 1056 3291 1056 2328 
Q 1056 1369 1301 889 
Q 1547 409 2034 409 
Q 2525 409 2770 889 
Q 3016 1369 3016 2328 
Q 3016 3291 2770 3770 
Q 2525 4250 2034 4250 
z
M 2034 4750 
Q 2819 4750 3233 4129 
Q 3647 3509 3647 2328 
Q 3647 1150 3233 529 
Q 2819 -91 2034 -91 
Q 1250 -91 836 529 
Q 422 1150 422 2328 
Q 422 3509 836 4129 
Q 1250 4750 2034 4750 
z
" transform="scale(0.015625)"/>
        <path id="DejaVuSans-2e" d="M 684 794 
L 1344 794 
L 1344 0 
L 684 0 
L 684 794 
z
" transform="scale(0.015625)"/>
        <path id="DejaVuSans-32" d="M 1228 531 
L 3431 531 
L 3431 0 
L 469 0 
L 469 531 
Q 828 903 1448 1529 
Q 2069 2156 2228 2338 
Q 2531 2678 2651 2914 
Q 2772 3150 2772 3378 
Q 2772 3750 2511 3984 
Q 2250 4219 1831 4219 
Q 1534 4219 1204 4116 
Q 875 4013 500 3803 
L 500 4441 
Q 881 4594 1212 4672 
Q 1544 4750 1819 4750 
Q 2544 4750 2975 4387 
Q 3406 4025 3406 3419 
Q 3406 3131 3298 2873 
Q 3191 2616 2906 2266 
Q 2828 2175 2409 1742 
Q 1991 1309 1228 531 
z
" transform="scale(0.015625)"/>
       </defs>
       <use xlink:href="#DejaVuSans-30"/>
       <use xlink:href="#DejaVuSans-2e" transform="translate(63.623047 0)"/>
       <use xlink:href="#DejaVuSans-32" transform="translate(95.410156 0)"/>
      </g>
     </g>
    </g>
    <g id="xtick_2">
     <g id="line2d_2">
      <g>
       <use xlink:href="#mba86ff33ed" x="225.344533" y="427.378047" style="fill: #555555; stroke: #555555; stroke-width: 0.8"/>
      </g>
     </g>
     <g id="text_2">
      <!-- 0.3 -->
      <g transform="translate(217.790549 441.596562) scale(0.095 -0.095)">
       <defs>
        <path id="DejaVuSans-33" d="M 2597 2516 
Q 3050 2419 3304 2112 
Q 3559 1806 3559 1356 
Q 3559 666 3084 287 
Q 2609 -91 1734 -91 
Q 1441 -91 1130 -33 
Q 819 25 488 141 
L 488 750 
Q 750 597 1062 519 
Q 1375 441 1716 441 
Q 2309 441 2620 675 
Q 2931 909 2931 1356 
Q 2931 1769 2642 2001 
Q 2353 2234 1838 2234 
L 1294 2234 
L 1294 2753 
L 1863 2753 
Q 2328 2753 2575 2939 
Q 2822 3125 2822 3475 
Q 2822 3834 2567 4026 
Q 2313 4219 1838 4219 
Q 1578 4219 1281 4162 
Q 984 4106 628 3988 
L 628 4550 
Q 988 4650 1302 4700 
Q 1616 4750 1894 4750 
Q 2613 4750 3031 4423 
Q 3450 4097 3450 3541 
Q 3450 3153 3228 2886 
Q 3006 2619 2597 2516 
z
" transform="scale(0.015625)"/>
       </defs>
       <use xlink:href="#DejaVuSans-30"/>
       <use xlink:href="#DejaVuSans-2e" transform="translate(63.623047 0)"/>
       <use xlink:href="#DejaVuSans-33" transform="translate(95.410156 0)"/>
      </g>
     </g>
    </g>
    <g id="xtick_3">
     <g id="line2d_3">
      <g>
       <use xlink:href="#mba86ff33ed" x="281.466101" y="427.378047" style="fill: #555555; stroke: #555555; stroke-width: 0.8"/>
      </g>
     </g>
     <g id="text_3">
      <!-- 0.4 -->
      <g transform="translate(273.912116 441.596562) scale(0.095 -0.095)">
       <defs>
        <path id="DejaVuSans-34" d="M 2419 4116 
L 825 1625 
L 2419 1625 
L 2419 4116 
z
M 2253 4666 
L 3047 4666 
L 3047 1625 
L 3713 1625 
L 3713 1100 
L 3047 1100 
L 3047 0 
L 2419 0 
L 2419 1100 
L 313 1100 
L 313 1709 
L 2253 4666 
z
" transform="scale(0.015625)"/>
       </defs>
       <use xlink:href="#DejaVuSans-30"/>
       <use xlink:href="#DejaVuSans-2e" transform="translate(63.623047 0)"/>
       <use xlink:href="#DejaVuSans-34" transform="translate(95.410156 0)"/>
      </g>
     </g>
    </g>
    <g id="xtick_4">
     <g id="line2d_4">
      <g>
       <use xlink:href="#mba86ff33ed" x="337.587668" y="427.378047" style="fill: #555555; stroke: #555555; stroke-width: 0.8"/>
      </g>
     </g>
     <g id="text_4">
      <!-- 0.5 -->
      <g transform="translate(330.033684 441.596562) scale(0.095 -0.095)">
       <defs>
        <path id="DejaVuSans-35" d="M 691 4666 
L 3169 4666 
L 3169 4134 
L 1269 4134 
L 1269 2991 
Q 1406 3038 1543 3061 
Q 1681 3084 1819 3084 
Q 2600 3084 3056 2656 
Q 3513 2228 3513 1497 
Q 3513 744 3044 326 
Q 2575 -91 1722 -91 
Q 1428 -91 1123 -41 
Q 819 9 494 109 
L 494 744 
Q 775 591 1075 516 
Q 1375 441 1709 441 
Q 2250 441 2565 725 
Q 2881 1009 2881 1497 
Q 2881 1984 2565 2268 
Q 2250 2553 1709 2553 
Q 1456 2553 1204 2497 
Q 953 2441 691 2322 
L 691 4666 
z
" transform="scale(0.015625)"/>
       </defs>
       <use xlink:href="#DejaVuSans-30"/>
       <use xlink:href="#DejaVuSans-2e" transform="translate(63.623047 0)"/>
       <use xlink:href="#DejaVuSans-35" transform="translate(95.410156 0)"/>
      </g>
     </g>
    </g>
    <g id="xtick_5">
     <g id="line2d_5">
      <g>
       <use xlink:href="#mba86ff33ed" x="393.709236" y="427.378047" style="fill: #555555; stroke: #555555; stroke-width: 0.8"/>
      </g>
     </g>
     <g id="text_5">
      <!-- 0.6 -->
      <g transform="translate(386.155251 441.596562) scale(0.095 -0.095)">
       <defs>
        <path id="DejaVuSans-36" d="M 2113 2584 
Q 1688 2584 1439 2293 
Q 1191 2003 1191 1497 
Q 1191 994 1439 701 
Q 1688 409 2113 409 
Q 2538 409 2786 701 
Q 3034 994 3034 1497 
Q 3034 2003 2786 2293 
Q 2538 2584 2113 2584 
z
M 3366 4563 
L 3366 3988 
Q 3128 4100 2886 4159 
Q 2644 4219 2406 4219 
Q 1781 4219 1451 3797 
Q 1122 3375 1075 2522 
Q 1259 2794 1537 2939 
Q 1816 3084 2150 3084 
Q 2853 3084 3261 2657 
Q 3669 2231 3669 1497 
Q 3669 778 3244 343 
Q 2819 -91 2113 -91 
Q 1303 -91 875 529 
Q 447 1150 447 2328 
Q 447 3434 972 4092 
Q 1497 4750 2381 4750 
Q 2619 4750 2861 4703 
Q 3103 4656 3366 4563 
z
" transform="scale(0.015625)"/>
       </defs>
       <use xlink:href="#DejaVuSans-30"/>
       <use xlink:href="#DejaVuSans-2e" transform="translate(63.623047 0)"/>
       <use xlink:href="#DejaVuSans-36" transform="translate(95.410156 0)"/>
      </g>
     </g>
    </g>
    <g id="xtick_6">
     <g id="line2d_6">
      <g>
       <use xlink:href="#mba86ff33ed" x="449.830803" y="427.378047" style="fill: #555555; stroke: #555555; stroke-width: 0.8"/>
      </g>
     </g>
     <g id="text_6">
      <!-- 0.7 -->
      <g transform="translate(442.276819 441.596562) scale(0.095 -0.095)">
       <defs>
        <path id="DejaVuSans-37" d="M 525 4666 
L 3525 4666 
L 3525 4397 
L 1831 0 
L 1172 0 
L 2766 4134 
L 525 4134 
L 525 4666 
z
" transform="scale(0.015625)"/>
       </defs>
       <use xlink:href="#DejaVuSans-30"/>
       <use xlink:href="#DejaVuSans-2e" transform="translate(63.623047 0)"/>
       <use xlink:href="#DejaVuSans-37" transform="translate(95.410156 0)"/>
      </g>
     </g>
    </g>
    <g id="xtick_7">
     <g id="line2d_7">
      <g>
       <use xlink:href="#mba86ff33ed" x="505.952371" y="427.378047" style="fill: #555555; stroke: #555555; stroke-width: 0.8"/>
      </g>
     </g>
     <g id="text_7">
      <!-- 0.8 -->
      <g transform="translate(498.398387 441.596562) scale(0.095 -0.095)">
       <defs>
        <path id="DejaVuSans-38" d="M 2034 2216 
Q 1584 2216 1326 1975 
Q 1069 1734 1069 1313 
Q 1069 891 1326 650 
Q 1584 409 2034 409 
Q 2484 409 2743 651 
Q 3003 894 3003 1313 
Q 3003 1734 2745 1975 
Q 2488 2216 2034 2216 
z
M 1403 2484 
Q 997 2584 770 2862 
Q 544 3141 544 3541 
Q 544 4100 942 4425 
Q 1341 4750 2034 4750 
Q 2731 4750 3128 4425 
Q 3525 4100 3525 3541 
Q 3525 3141 3298 2862 
Q 3072 2584 2669 2484 
Q 3125 2378 3379 2068 
Q 3634 1759 3634 1313 
Q 3634 634 3220 271 
Q 2806 -91 2034 -91 
Q 1263 -91 848 271 
Q 434 634 434 1313 
Q 434 1759 690 2068 
Q 947 2378 1403 2484 
z
M 1172 3481 
Q 1172 3119 1398 2916 
Q 1625 2713 2034 2713 
Q 2441 2713 2670 2916 
Q 2900 3119 2900 3481 
Q 2900 3844 2670 4047 
Q 2441 4250 2034 4250 
Q 1625 4250 1398 4047 
Q 1172 3844 1172 3481 
z
" transform="scale(0.015625)"/>
       </defs>
       <use xlink:href="#DejaVuSans-30"/>
       <use xlink:href="#DejaVuSans-2e" transform="translate(63.623047 0)"/>
       <use xlink:href="#DejaVuSans-38" transform="translate(95.410156 0)"/>
      </g>
     </g>
    </g>
    <g id="text_8">
     <!-- “Picks the genuine passage” — accuracy -->
     <g transform="translate(208.264167 455.930547) scale(0.11 -0.11)">
      <defs>
       <path id="DejaVuSans-201c" d="M 1203 3128 
L 544 3128 
L 544 3669 
L 1056 4666 
L 1459 4666 
L 1203 3669 
L 1203 3128 
z
M 2484 3128 
L 1825 3128 
L 1825 3669 
L 2338 4666 
L 2741 4666 
L 2484 3669 
L 2484 3128 
z
" transform="scale(0.015625)"/>
       <path id="DejaVuSans-50" d="M 1259 4147 
L 1259 2394 
L 2053 2394 
Q 2494 2394 2734 2622 
Q 2975 2850 2975 3272 
Q 2975 3691 2734 3919 
Q 2494 4147 2053 4147 
L 1259 4147 
z
M 628 4666 
L 2053 4666 
Q 2838 4666 3239 4311 
Q 3641 3956 3641 3272 
Q 3641 2581 3239 2228 
Q 2838 1875 2053 1875 
L 1259 1875 
L 1259 0 
L 628 0 
L 628 4666 
z
" transform="scale(0.015625)"/>
       <path id="DejaVuSans-69" d="M 603 3500 
L 1178 3500 
L 1178 0 
L 603 0 
L 603 3500 
z
M 603 4863 
L 1178 4863 
L 1178 4134 
L 603 4134 
L 603 4863 
z
" transform="scale(0.015625)"/>
       <path id="DejaVuSans-63" d="M 3122 3366 
L 3122 2828 
Q 2878 2963 2633 3030 
Q 2388 3097 2138 3097 
Q 1578 3097 1268 2742 
Q 959 2388 959 1747 
Q 959 1106 1268 751 
Q 1578 397 2138 397 
Q 2388 397 2633 464 
Q 2878 531 3122 666 
L 3122 134 
Q 2881 22 2623 -34 
Q 2366 -91 2075 -91 
Q 1284 -91 818 406 
Q 353 903 353 1747 
Q 353 2603 823 3093 
Q 1294 3584 2113 3584 
Q 2378 3584 2631 3529 
Q 2884 3475 3122 3366 
z
" transform="scale(0.015625)"/>
       <path id="DejaVuSans-6b" d="M 581 4863 
L 1159 4863 
L 1159 1991 
L 2875 3500 
L 3609 3500 
L 1753 1863 
L 3688 0 
L 2938 0 
L 1159 1709 
L 1159 0 
L 581 0 
L 581 4863 
z
" transform="scale(0.015625)"/>
       <path id="DejaVuSans-73" d="M 2834 3397 
L 2834 2853 
Q 2591 2978 2328 3040 
Q 2066 3103 1784 3103 
Q 1356 3103 1142 2972 
Q 928 2841 928 2578 
Q 928 2378 1081 2264 
Q 1234 2150 1697 2047 
L 1894 2003 
Q 2506 1872 2764 1633 
Q 3022 1394 3022 966 
Q 3022 478 2636 193 
Q 2250 -91 1575 -91 
Q 1294 -91 989 -36 
Q 684 19 347 128 
L 347 722 
Q 666 556 975 473 
Q 1284 391 1588 391 
Q 1994 391 2212 530 
Q 2431 669 2431 922 
Q 2431 1156 2273 1281 
Q 2116 1406 1581 1522 
L 1381 1569 
Q 847 1681 609 1914 
Q 372 2147 372 2553 
Q 372 3047 722 3315 
Q 1072 3584 1716 3584 
Q 2034 3584 2315 3537 
Q 2597 3491 2834 3397 
z
" transform="scale(0.015625)"/>
       <path id="DejaVuSans-20" transform="scale(0.015625)"/>
       <path id="DejaVuSans-74" d="M 1172 4494 
L 1172 3500 
L 2356 3500 
L 2356 3053 
L 1172 3053 
L 1172 1153 
Q 1172 725 1289 603 
Q 1406 481 1766 481 
L 2356 481 
L 2356 0 
L 1766 0 
Q 1100 0 847 248 
Q 594 497 594 1153 
L 594 3053 
L 172 3053 
L 172 3500 
L 594 3500 
L 594 4494 
L 1172 4494 
z
" transform="scale(0.015625)"/>
       <path id="DejaVuSans-68" d="M 3513 2113 
L 3513 0 
L 2938 0 
L 2938 2094 
Q 2938 2591 2744 2837 
Q 2550 3084 2163 3084 
Q 1697 3084 1428 2787 
Q 1159 2491 1159 1978 
L 1159 0 
L 581 0 
L 581 4863 
L 1159 4863 
L 1159 2956 
Q 1366 3272 1645 3428 
Q 1925 3584 2291 3584 
Q 2894 3584 3203 3211 
Q 3513 2838 3513 2113 
z
" transform="scale(0.015625)"/>
       <path id="DejaVuSans-65" d="M 3597 1894 
L 3597 1613 
L 953 1613 
Q 991 1019 1311 708 
Q 1631 397 2203 397 
Q 2534 397 2845 478 
Q 3156 559 3463 722 
L 3463 178 
Q 3153 47 2828 -22 
Q 2503 -91 2169 -91 
Q 1331 -91 842 396 
Q 353 884 353 1716 
Q 353 2575 817 3079 
Q 1281 3584 2069 3584 
Q 2775 3584 3186 3129 
Q 3597 2675 3597 1894 
z
M 3022 2063 
Q 3016 2534 2758 2815 
Q 2500 3097 2075 3097 
Q 1594 3097 1305 2825 
Q 1016 2553 972 2059 
L 3022 2063 
z
" transform="scale(0.015625)"/>
       <path id="DejaVuSans-67" d="M 2906 1791 
Q 2906 2416 2648 2759 
Q 2391 3103 1925 3103 
Q 1463 3103 1205 2759 
Q 947 2416 947 1791 
Q 947 1169 1205 825 
Q 1463 481 1925 481 
Q 2391 481 2648 825 
Q 2906 1169 2906 1791 
z
M 3481 434 
Q 3481 -459 3084 -895 
Q 2688 -1331 1869 -1331 
Q 1566 -1331 1297 -1286 
Q 1028 -1241 775 -1147 
L 775 -588 
Q 1028 -725 1275 -790 
Q 1522 -856 1778 -856 
Q 2344 -856 2625 -561 
Q 2906 -266 2906 331 
L 2906 616 
Q 2728 306 2450 153 
Q 2172 0 1784 0 
Q 1141 0 747 490 
Q 353 981 353 1791 
Q 353 2603 747 3093 
Q 1141 3584 1784 3584 
Q 2172 3584 2450 3431 
Q 2728 3278 2906 2969 
L 2906 3500 
L 3481 3500 
L 3481 434 
z
" transform="scale(0.015625)"/>
       <path id="DejaVuSans-6e" d="M 3513 2113 
L 3513 0 
L 2938 0 
L 2938 2094 
Q 2938 2591 2744 2837 
Q 2550 3084 2163 3084 
Q 1697 3084 1428 2787 
Q 1159 2491 1159 1978 
L 1159 0 
L 581 0 
L 581 3500 
L 1159 3500 
L 1159 2956 
Q 1366 3272 1645 3428 
Q 1925 3584 2291 3584 
Q 2894 3584 3203 3211 
Q 3513 2838 3513 2113 
z
" transform="scale(0.015625)"/>
       <path id="DejaVuSans-75" d="M 544 1381 
L 544 3500 
L 1119 3500 
L 1119 1403 
Q 1119 906 1312 657 
Q 1506 409 1894 409 
Q 2359 409 2629 706 
Q 2900 1003 2900 1516 
L 2900 3500 
L 3475 3500 
L 3475 0 
L 2900 0 
L 2900 538 
Q 2691 219 2414 64 
Q 2138 -91 1772 -91 
Q 1169 -91 856 284 
Q 544 659 544 1381 
z
M 1991 3584 
L 1991 3584 
z
" transform="scale(0.015625)"/>
       <path id="DejaVuSans-70" d="M 1159 525 
L 1159 -1331 
L 581 -1331 
L 581 3500 
L 1159 3500 
L 1159 2969 
Q 1341 3281 1617 3432 
Q 1894 3584 2278 3584 
Q 2916 3584 3314 3078 
Q 3713 2572 3713 1747 
Q 3713 922 3314 415 
Q 2916 -91 2278 -91 
Q 1894 -91 1617 61 
Q 1341 213 1159 525 
z
M 3116 1747 
Q 3116 2381 2855 2742 
Q 2594 3103 2138 3103 
Q 1681 3103 1420 2742 
Q 1159 2381 1159 1747 
Q 1159 1113 1420 752 
Q 1681 391 2138 391 
Q 2594 391 2855 752 
Q 3116 1113 3116 1747 
z
" transform="scale(0.015625)"/>
       <path id="DejaVuSans-61" d="M 2194 1759 
Q 1497 1759 1228 1600 
Q 959 1441 959 1056 
Q 959 750 1161 570 
Q 1363 391 1709 391 
Q 2188 391 2477 730 
Q 2766 1069 2766 1631 
L 2766 1759 
L 2194 1759 
z
M 3341 1997 
L 3341 0 
L 2766 0 
L 2766 531 
Q 2569 213 2275 61 
Q 1981 -91 1556 -91 
Q 1019 -91 701 211 
Q 384 513 384 1019 
Q 384 1609 779 1909 
Q 1175 2209 1959 2209 
L 2766 2209 
L 2766 2266 
Q 2766 2663 2505 2880 
Q 2244 3097 1772 3097 
Q 1472 3097 1187 3025 
Q 903 2953 641 2809 
L 641 3341 
Q 956 3463 1253 3523 
Q 1550 3584 1831 3584 
Q 2591 3584 2966 3190 
Q 3341 2797 3341 1997 
z
" transform="scale(0.015625)"/>
       <path id="DejaVuSans-201d" d="M 800 4666 
L 1459 4666 
L 1459 4128 
L 947 3128 
L 544 3128 
L 800 4128 
L 800 4666 
z
M 2081 4666 
L 2741 4666 
L 2741 4128 
L 2228 3128 
L 1825 3128 
L 2081 4128 
L 2081 4666 
z
" transform="scale(0.015625)"/>
       <path id="DejaVuSans-2014" d="M 313 1978 
L 6088 1978 
L 6088 1528 
L 313 1528 
L 313 1978 
z
" transform="scale(0.015625)"/>
       <path id="DejaVuSans-72" d="M 2631 2963 
Q 2534 3019 2420 3045 
Q 2306 3072 2169 3072 
Q 1681 3072 1420 2755 
Q 1159 2438 1159 1844 
L 1159 0 
L 581 0 
L 581 3500 
L 1159 3500 
L 1159 2956 
Q 1341 3275 1631 3429 
Q 1922 3584 2338 3584 
Q 2397 3584 2469 3576 
Q 2541 3569 2628 3553 
L 2631 2963 
z
" transform="scale(0.015625)"/>
       <path id="DejaVuSans-79" d="M 2059 -325 
Q 1816 -950 1584 -1140 
Q 1353 -1331 966 -1331 
L 506 -1331 
L 506 -850 
L 844 -850 
Q 1081 -850 1212 -737 
Q 1344 -625 1503 -206 
L 1606 56 
L 191 3500 
L 800 3500 
L 1894 763 
L 2988 3500 
L 3597 3500 
L 2059 -325 
z
" transform="scale(0.015625)"/>
      </defs>
      <use xlink:href="#DejaVuSans-201c"/>
      <use xlink:href="#DejaVuSans-50" transform="translate(48.681641 0)"/>
      <use xlink:href="#DejaVuSans-69" transform="translate(106.734375 0)"/>
      <use xlink:href="#DejaVuSans-63" transform="translate(134.517578 0)"/>
      <use xlink:href="#DejaVuSans-6b" transform="translate(189.498047 0)"/>
      <use xlink:href="#DejaVuSans-73" transform="translate(247.408203 0)"/>
      <use xlink:href="#DejaVuSans-20" transform="translate(299.507812 0)"/>
      <use xlink:href="#DejaVuSans-74" transform="translate(331.294922 0)"/>
      <use xlink:href="#DejaVuSans-68" transform="translate(370.503906 0)"/>
      <use xlink:href="#DejaVuSans-65" transform="translate(433.882812 0)"/>
      <use xlink:href="#DejaVuSans-20" transform="translate(495.40625 0)"/>
      <use xlink:href="#DejaVuSans-67" transform="translate(527.193359 0)"/>
      <use xlink:href="#DejaVuSans-65" transform="translate(590.669922 0)"/>
      <use xlink:href="#DejaVuSans-6e" transform="translate(652.193359 0)"/>
      <use xlink:href="#DejaVuSans-75" transform="translate(715.572266 0)"/>
      <use xlink:href="#DejaVuSans-69" transform="translate(778.951172 0)"/>
      <use xlink:href="#DejaVuSans-6e" transform="translate(806.734375 0)"/>
      <use xlink:href="#DejaVuSans-65" transform="translate(870.113281 0)"/>
      <use xlink:href="#DejaVuSans-20" transform="translate(931.636719 0)"/>
      <use xlink:href="#DejaVuSans-70" transform="translate(963.423828 0)"/>
      <use xlink:href="#DejaVuSans-61" transform="translate(1026.900391 0)"/>
      <use xlink:href="#DejaVuSans-73" transform="translate(1088.179688 0)"/>
      <use xlink:href="#DejaVuSans-73" transform="translate(1140.279297 0)"/>
      <use xlink:href="#DejaVuSans-61" transform="translate(1192.378906 0)"/>
      <use xlink:href="#DejaVuSans-67" transform="translate(1253.658203 0)"/>
      <use xlink:href="#DejaVuSans-65" transform="translate(1317.134766 0)"/>
      <use xlink:href="#DejaVuSans-201d" transform="translate(1378.658203 0)"/>
      <use xlink:href="#DejaVuSans-20" transform="translate(1430.464844 0)"/>
      <use xlink:href="#DejaVuSans-2014" transform="translate(1462.251953 0)"/>
      <use xlink:href="#DejaVuSans-20" transform="translate(1562.251953 0)"/>
      <use xlink:href="#DejaVuSans-61" transform="translate(1594.039062 0)"/>
      <use xlink:href="#DejaVuSans-63" transform="translate(1655.318359 0)"/>
      <use xlink:href="#DejaVuSans-63" transform="translate(1710.298828 0)"/>
      <use xlink:href="#DejaVuSans-75" transform="translate(1765.279297 0)"/>
      <use xlink:href="#DejaVuSans-72" transform="translate(1828.658203 0)"/>
      <use xlink:href="#DejaVuSans-61" transform="translate(1869.771484 0)"/>
      <use xlink:href="#DejaVuSans-63" transform="translate(1931.050781 0)"/>
      <use xlink:href="#DejaVuSans-79" transform="translate(1986.03125 0)"/>
     </g>
    </g>
   </g>
   <g id="matplotlib.axis_2">
    <g id="ytick_1">
     <g id="line2d_8"/>
     <g id="text_9">
      <!-- Opus  ·  S1 -->
      <g transform="translate(55.232648 85.080246) scale(0.1 -0.1)">
       <defs>
        <path id="DejaVuSans-4f" d="M 2522 4238 
Q 1834 4238 1429 3725 
Q 1025 3213 1025 2328 
Q 1025 1447 1429 934 
Q 1834 422 2522 422 
Q 3209 422 3611 934 
Q 4013 1447 4013 2328 
Q 4013 3213 3611 3725 
Q 3209 4238 2522 4238 
z
M 2522 4750 
Q 3503 4750 4090 4092 
Q 4678 3434 4678 2328 
Q 4678 1225 4090 567 
Q 3503 -91 2522 -91 
Q 1538 -91 948 565 
Q 359 1222 359 2328 
Q 359 3434 948 4092 
Q 1538 4750 2522 4750 
z
" transform="scale(0.015625)"/>
        <path id="DejaVuSans-b7" d="M 684 2619 
L 1344 2619 
L 1344 1825 
L 684 1825 
L 684 2619 
z
" transform="scale(0.015625)"/>
        <path id="DejaVuSans-53" d="M 3425 4513 
L 3425 3897 
Q 3066 4069 2747 4153 
Q 2428 4238 2131 4238 
Q 1616 4238 1336 4038 
Q 1056 3838 1056 3469 
Q 1056 3159 1242 3001 
Q 1428 2844 1947 2747 
L 2328 2669 
Q 3034 2534 3370 2195 
Q 3706 1856 3706 1288 
Q 3706 609 3251 259 
Q 2797 -91 1919 -91 
Q 1588 -91 1214 -16 
Q 841 59 441 206 
L 441 856 
Q 825 641 1194 531 
Q 1563 422 1919 422 
Q 2459 422 2753 634 
Q 3047 847 3047 1241 
Q 3047 1584 2836 1778 
Q 2625 1972 2144 2069 
L 1759 2144 
Q 1053 2284 737 2584 
Q 422 2884 422 3419 
Q 422 4038 858 4394 
Q 1294 4750 2059 4750 
Q 2388 4750 2728 4690 
Q 3069 4631 3425 4513 
z
" transform="scale(0.015625)"/>
        <path id="DejaVuSans-31" d="M 794 531 
L 1825 531 
L 1825 4091 
L 703 3866 
L 703 4441 
L 1819 4666 
L 2450 4666 
L 2450 531 
L 3481 531 
L 3481 0 
L 794 0 
L 794 531 
z
" transform="scale(0.015625)"/>
       </defs>
       <use xlink:href="#DejaVuSans-4f"/>
       <use xlink:href="#DejaVuSans-70" transform="translate(78.710938 0)"/>
       <use xlink:href="#DejaVuSans-75" transform="translate(142.1875 0)"/>
       <use xlink:href="#DejaVuSans-73" transform="translate(205.566406 0)"/>
       <use xlink:href="#DejaVuSans-20" transform="translate(257.666016 0)"/>
       <use xlink:href="#DejaVuSans-20" transform="translate(289.453125 0)"/>
       <use xlink:href="#DejaVuSans-b7" transform="translate(321.240234 0)"/>
       <use xlink:href="#DejaVuSans-20" transform="translate(353.027344 0)"/>
       <use xlink:href="#DejaVuSans-20" transform="translate(384.814453 0)"/>
       <use xlink:href="#DejaVuSans-53" transform="translate(416.601562 0)"/>
       <use xlink:href="#DejaVuSans-31" transform="translate(480.078125 0)"/>
      </g>
     </g>
    </g>
    <g id="ytick_2">
     <g id="line2d_9"/>
     <g id="text_10">
      <!-- Sonnet  ·  S3 -->
      <g transform="translate(45.78421 114.788145) scale(0.1 -0.1)">
       <defs>
        <path id="DejaVuSans-6f" d="M 1959 3097 
Q 1497 3097 1228 2736 
Q 959 2375 959 1747 
Q 959 1119 1226 758 
Q 1494 397 1959 397 
Q 2419 397 2687 759 
Q 2956 1122 2956 1747 
Q 2956 2369 2687 2733 
Q 2419 3097 1959 3097 
z
M 1959 3584 
Q 2709 3584 3137 3096 
Q 3566 2609 3566 1747 
Q 3566 888 3137 398 
Q 2709 -91 1959 -91 
Q 1206 -91 779 398 
Q 353 888 353 1747 
Q 353 2609 779 3096 
Q 1206 3584 1959 3584 
z
" transform="scale(0.015625)"/>
       </defs>
       <use xlink:href="#DejaVuSans-53"/>
       <use xlink:href="#DejaVuSans-6f" transform="translate(63.476562 0)"/>
       <use xlink:href="#DejaVuSans-6e" transform="translate(124.658203 0)"/>
       <use xlink:href="#DejaVuSans-6e" transform="translate(188.037109 0)"/>
       <use xlink:href="#DejaVuSans-65" transform="translate(251.416016 0)"/>
       <use xlink:href="#DejaVuSans-74" transform="translate(312.939453 0)"/>
       <use xlink:href="#DejaVuSans-20" transform="translate(352.148438 0)"/>
       <use xlink:href="#DejaVuSans-20" transform="translate(383.935547 0)"/>
       <use xlink:href="#DejaVuSans-b7" transform="translate(415.722656 0)"/>
       <use xlink:href="#DejaVuSans-20" transform="translate(447.509766 0)"/>
       <use xlink:href="#DejaVuSans-20" transform="translate(479.296875 0)"/>
       <use xlink:href="#DejaVuSans-53" transform="translate(511.083984 0)"/>
       <use xlink:href="#DejaVuSans-33" transform="translate(574.560547 0)"/>
      </g>
     </g>
    </g>
    <g id="ytick_3">
     <g id="line2d_10"/>
     <g id="text_11">
      <!-- Haiku  ·  S2 -->
      <g transform="translate(52.757648 144.496044) scale(0.1 -0.1)">
       <defs>
        <path id="DejaVuSans-48" d="M 628 4666 
L 1259 4666 
L 1259 2753 
L 3553 2753 
L 3553 4666 
L 4184 4666 
L 4184 0 
L 3553 0 
L 3553 2222 
L 1259 2222 
L 1259 0 
L 628 0 
L 628 4666 
z
" transform="scale(0.015625)"/>
       </defs>
       <use xlink:href="#DejaVuSans-48"/>
       <use xlink:href="#DejaVuSans-61" transform="translate(75.195312 0)"/>
       <use xlink:href="#DejaVuSans-69" transform="translate(136.474609 0)"/>
       <use xlink:href="#DejaVuSans-6b" transform="translate(164.257812 0)"/>
       <use xlink:href="#DejaVuSans-75" transform="translate(219.042969 0)"/>
       <use xlink:href="#DejaVuSans-20" transform="translate(282.421875 0)"/>
       <use xlink:href="#DejaVuSans-20" transform="translate(314.208984 0)"/>
       <use xlink:href="#DejaVuSans-b7" transform="translate(345.996094 0)"/>
       <use xlink:href="#DejaVuSans-20" transform="translate(377.783203 0)"/>
       <use xlink:href="#DejaVuSans-20" transform="translate(409.570312 0)"/>
       <use xlink:href="#DejaVuSans-53" transform="translate(441.357422 0)"/>
       <use xlink:href="#DejaVuSans-32" transform="translate(504.833984 0)"/>
      </g>
     </g>
    </g>
    <g id="ytick_4">
     <g id="line2d_11"/>
     <g id="text_12">
      <!-- Opus  ·  S3 -->
      <g transform="translate(55.232648 208.368026) scale(0.1 -0.1)">
       <use xlink:href="#DejaVuSans-4f"/>
       <use xlink:href="#DejaVuSans-70" transform="translate(78.710938 0)"/>
       <use xlink:href="#DejaVuSans-75" transform="translate(142.1875 0)"/>
       <use xlink:href="#DejaVuSans-73" transform="translate(205.566406 0)"/>
       <use xlink:href="#DejaVuSans-20" transform="translate(257.666016 0)"/>
       <use xlink:href="#DejaVuSans-20" transform="translate(289.453125 0)"/>
       <use xlink:href="#DejaVuSans-b7" transform="translate(321.240234 0)"/>
       <use xlink:href="#DejaVuSans-20" transform="translate(353.027344 0)"/>
       <use xlink:href="#DejaVuSans-20" transform="translate(384.814453 0)"/>
       <use xlink:href="#DejaVuSans-53" transform="translate(416.601562 0)"/>
       <use xlink:href="#DejaVuSans-33" transform="translate(480.078125 0)"/>
      </g>
     </g>
    </g>
    <g id="ytick_5">
     <g id="line2d_12"/>
     <g id="text_13">
      <!-- Sonnet  ·  S2 -->
      <g transform="translate(45.78421 238.075924) scale(0.1 -0.1)">
       <use xlink:href="#DejaVuSans-53"/>
       <use xlink:href="#DejaVuSans-6f" transform="translate(63.476562 0)"/>
       <use xlink:href="#DejaVuSans-6e" transform="translate(124.658203 0)"/>
       <use xlink:href="#DejaVuSans-6e" transform="translate(188.037109 0)"/>
       <use xlink:href="#DejaVuSans-65" transform="translate(251.416016 0)"/>
       <use xlink:href="#DejaVuSans-74" transform="translate(312.939453 0)"/>
       <use xlink:href="#DejaVuSans-20" transform="translate(352.148438 0)"/>
       <use xlink:href="#DejaVuSans-20" transform="translate(383.935547 0)"/>
       <use xlink:href="#DejaVuSans-b7" transform="translate(415.722656 0)"/>
       <use xlink:href="#DejaVuSans-20" transform="translate(447.509766 0)"/>
       <use xlink:href="#DejaVuSans-20" transform="translate(479.296875 0)"/>
       <use xlink:href="#DejaVuSans-53" transform="translate(511.083984 0)"/>
       <use xlink:href="#DejaVuSans-32" transform="translate(574.560547 0)"/>
      </g>
     </g>
    </g>
    <g id="ytick_6">
     <g id="line2d_13"/>
     <g id="text_14">
      <!-- Sonnet  ·  S1 -->
      <g transform="translate(45.78421 267.783823) scale(0.1 -0.1)">
       <use xlink:href="#DejaVuSans-53"/>
       <use xlink:href="#DejaVuSans-6f" transform="translate(63.476562 0)"/>
       <use xlink:href="#DejaVuSans-6e" transform="translate(124.658203 0)"/>
       <use xlink:href="#DejaVuSans-6e" transform="translate(188.037109 0)"/>
       <use xlink:href="#DejaVuSans-65" transform="translate(251.416016 0)"/>
       <use xlink:href="#DejaVuSans-74" transform="translate(312.939453 0)"/>
       <use xlink:href="#DejaVuSans-20" transform="translate(352.148438 0)"/>
       <use xlink:href="#DejaVuSans-20" transform="translate(383.935547 0)"/>
       <use xlink:href="#DejaVuSans-b7" transform="translate(415.722656 0)"/>
       <use xlink:href="#DejaVuSans-20" transform="translate(447.509766 0)"/>
       <use xlink:href="#DejaVuSans-20" transform="translate(479.296875 0)"/>
       <use xlink:href="#DejaVuSans-53" transform="translate(511.083984 0)"/>
       <use xlink:href="#DejaVuSans-31" transform="translate(574.560547 0)"/>
      </g>
     </g>
    </g>
    <g id="ytick_7">
     <g id="line2d_14"/>
     <g id="text_15">
      <!-- Opus  ·  S2 -->
      <g transform="translate(55.232648 331.655805) scale(0.1 -0.1)">
       <use xlink:href="#DejaVuSans-4f"/>
       <use xlink:href="#DejaVuSans-70" transform="translate(78.710938 0)"/>
       <use xlink:href="#DejaVuSans-75" transform="translate(142.1875 0)"/>
       <use xlink:href="#DejaVuSans-73" transform="translate(205.566406 0)"/>
       <use xlink:href="#DejaVuSans-20" transform="translate(257.666016 0)"/>
       <use xlink:href="#DejaVuSans-20" transform="translate(289.453125 0)"/>
       <use xlink:href="#DejaVuSans-b7" transform="translate(321.240234 0)"/>
       <use xlink:href="#DejaVuSans-20" transform="translate(353.027344 0)"/>
       <use xlink:href="#DejaVuSans-20" transform="translate(384.814453 0)"/>
       <use xlink:href="#DejaVuSans-53" transform="translate(416.601562 0)"/>
       <use xlink:href="#DejaVuSans-32" transform="translate(480.078125 0)"/>
      </g>
     </g>
    </g>
    <g id="ytick_8">
     <g id="line2d_15"/>
     <g id="text_16">
      <!-- Haiku  ·  S1 -->
      <g transform="translate(52.757648 361.363704) scale(0.1 -0.1)">
       <use xlink:href="#DejaVuSans-48"/>
       <use xlink:href="#DejaVuSans-61" transform="translate(75.195312 0)"/>
       <use xlink:href="#DejaVuSans-69" transform="translate(136.474609 0)"/>
       <use xlink:href="#DejaVuSans-6b" transform="translate(164.257812 0)"/>
       <use xlink:href="#DejaVuSans-75" transform="translate(219.042969 0)"/>
       <use xlink:href="#DejaVuSans-20" transform="translate(282.421875 0)"/>
       <use xlink:href="#DejaVuSans-20" transform="translate(314.208984 0)"/>
       <use xlink:href="#DejaVuSans-b7" transform="translate(345.996094 0)"/>
       <use xlink:href="#DejaVuSans-20" transform="translate(377.783203 0)"/>
       <use xlink:href="#DejaVuSans-20" transform="translate(409.570312 0)"/>
       <use xlink:href="#DejaVuSans-53" transform="translate(441.357422 0)"/>
       <use xlink:href="#DejaVuSans-31" transform="translate(504.833984 0)"/>
      </g>
     </g>
    </g>
    <g id="ytick_9">
     <g id="line2d_16"/>
     <g id="text_17">
      <!-- Haiku  ·  S3 -->
      <g transform="translate(52.757648 391.071602) scale(0.1 -0.1)">
       <use xlink:href="#DejaVuSans-48"/>
       <use xlink:href="#DejaVuSans-61" transform="translate(75.195312 0)"/>
       <use xlink:href="#DejaVuSans-69" transform="translate(136.474609 0)"/>
       <use xlink:href="#DejaVuSans-6b" transform="translate(164.257812 0)"/>
       <use xlink:href="#DejaVuSans-75" transform="translate(219.042969 0)"/>
       <use xlink:href="#DejaVuSans-20" transform="translate(282.421875 0)"/>
       <use xlink:href="#DejaVuSans-20" transform="translate(314.208984 0)"/>
       <use xlink:href="#DejaVuSans-b7" transform="translate(345.996094 0)"/>
       <use xlink:href="#DejaVuSans-20" transform="translate(377.783203 0)"/>
       <use xlink:href="#DejaVuSans-20" transform="translate(409.570312 0)"/>
       <use xlink:href="#DejaVuSans-53" transform="translate(441.357422 0)"/>
       <use xlink:href="#DejaVuSans-33" transform="translate(504.833984 0)"/>
      </g>
     </g>
    </g>
   </g>
   <g id="line2d_17">
    <path d="M 337.587668 427.378047 
L 337.587668 28.698047 
" clip-path="url(#p412aa9ed23)" style="fill: none; stroke: #222222; stroke-width: 1.5; stroke-linecap: square"/>
   </g>
   <g id="patch_3">
    <path d="M 113.101398 427.378047 
L 528.400998 427.378047 
" style="fill: none; stroke: #555555; stroke-width: 0.8; stroke-linejoin: miter; stroke-linecap: square"/>
   </g>
   <g id="line2d_18">
    <path d="M 337.587668 81.281028 
L 463.861195 81.281028 
" clip-path="url(#p412aa9ed23)" style="fill: none; stroke: #2c5f8a; stroke-width: 2.6; stroke-linecap: round"/>
   </g>
   <g id="line2d_19">
    <path d="M 337.587668 110.988926 
L 344.322256 110.988926 
" clip-path="url(#p412aa9ed23)" style="fill: none; stroke: #9aa0a6; stroke-opacity: 0.9; stroke-width: 1.8; stroke-linecap: round"/>
   </g>
   <g id="line2d_20">
    <path d="M 337.587668 140.696825 
L 172.59026 140.696825 
" clip-path="url(#p412aa9ed23)" style="fill: none; stroke: #b03030; stroke-width: 2.6; stroke-linecap: round"/>
   </g>
   <g id="line2d_21">
    <path d="M 337.587668 204.568807 
L 432.433117 204.568807 
" clip-path="url(#p412aa9ed23)" style="fill: none; stroke: #2c5f8a; stroke-width: 2.6; stroke-linecap: round"/>
   </g>
   <g id="line2d_22">
    <path d="M 337.587668 234.276706 
L 267.435709 234.276706 
" clip-path="url(#p412aa9ed23)" style="fill: none; stroke: #b03030; stroke-width: 2.6; stroke-linecap: round"/>
   </g>
   <g id="line2d_23">
    <path d="M 337.587668 263.984604 
L 162.488377 263.984604 
" clip-path="url(#p412aa9ed23)" style="fill: none; stroke: #b03030; stroke-width: 2.6; stroke-linecap: round"/>
   </g>
   <g id="line2d_24">
    <path d="M 337.587668 327.856586 
L 348.250766 327.856586 
" clip-path="url(#p412aa9ed23)" style="fill: none; stroke: #9aa0a6; stroke-opacity: 0.9; stroke-width: 1.8; stroke-linecap: round"/>
   </g>
   <g id="line2d_25">
    <path d="M 337.587668 357.564485 
L 358.352648 357.564485 
" clip-path="url(#p412aa9ed23)" style="fill: none; stroke: #9aa0a6; stroke-opacity: 0.9; stroke-width: 1.8; stroke-linecap: round"/>
   </g>
   <g id="line2d_26">
    <path d="M 337.587668 387.272384 
L 246.670729 387.272384 
" clip-path="url(#p412aa9ed23)" style="fill: none; stroke: #b03030; stroke-width: 2.6; stroke-linecap: round"/>
   </g>
   <g id="text_18">
    <!-- Who is fooled by the forgery — and who sees through it? -->
    <g transform="translate(120.20237 16.698047) scale(0.125 -0.125)">
     <defs>
      <path id="DejaVuSans-Bold-57" d="M 191 4666 
L 1344 4666 
L 2150 1275 
L 2950 4666 
L 4109 4666 
L 4909 1275 
L 5716 4666 
L 6859 4666 
L 5759 0 
L 4372 0 
L 3525 3547 
L 2688 0 
L 1300 0 
L 191 4666 
z
" transform="scale(0.015625)"/>
      <path id="DejaVuSans-Bold-68" d="M 4056 2131 
L 4056 0 
L 2931 0 
L 2931 347 
L 2931 1625 
Q 2931 2084 2911 2256 
Q 2891 2428 2841 2509 
Q 2775 2619 2662 2680 
Q 2550 2741 2406 2741 
Q 2056 2741 1856 2470 
Q 1656 2200 1656 1722 
L 1656 0 
L 538 0 
L 538 4863 
L 1656 4863 
L 1656 2988 
Q 1909 3294 2193 3439 
Q 2478 3584 2822 3584 
Q 3428 3584 3742 3212 
Q 4056 2841 4056 2131 
z
" transform="scale(0.015625)"/>
      <path id="DejaVuSans-Bold-6f" d="M 2203 2784 
Q 1831 2784 1636 2517 
Q 1441 2250 1441 1747 
Q 1441 1244 1636 976 
Q 1831 709 2203 709 
Q 2569 709 2762 976 
Q 2956 1244 2956 1747 
Q 2956 2250 2762 2517 
Q 2569 2784 2203 2784 
z
M 2203 3584 
Q 3106 3584 3614 3096 
Q 4122 2609 4122 1747 
Q 4122 884 3614 396 
Q 3106 -91 2203 -91 
Q 1297 -91 786 396 
Q 275 884 275 1747 
Q 275 2609 786 3096 
Q 1297 3584 2203 3584 
z
" transform="scale(0.015625)"/>
      <path id="DejaVuSans-Bold-20" transform="scale(0.015625)"/>
      <path id="DejaVuSans-Bold-69" d="M 538 3500 
L 1656 3500 
L 1656 0 
L 538 0 
L 538 3500 
z
M 538 4863 
L 1656 4863 
L 1656 3950 
L 538 3950 
L 538 4863 
z
" transform="scale(0.015625)"/>
      <path id="DejaVuSans-Bold-73" d="M 3272 3391 
L 3272 2541 
Q 2913 2691 2578 2766 
Q 2244 2841 1947 2841 
Q 1628 2841 1473 2761 
Q 1319 2681 1319 2516 
Q 1319 2381 1436 2309 
Q 1553 2238 1856 2203 
L 2053 2175 
Q 2913 2066 3209 1816 
Q 3506 1566 3506 1031 
Q 3506 472 3093 190 
Q 2681 -91 1863 -91 
Q 1516 -91 1145 -36 
Q 775 19 384 128 
L 384 978 
Q 719 816 1070 734 
Q 1422 653 1784 653 
Q 2113 653 2278 743 
Q 2444 834 2444 1013 
Q 2444 1163 2330 1236 
Q 2216 1309 1875 1350 
L 1678 1375 
Q 931 1469 631 1722 
Q 331 1975 331 2491 
Q 331 3047 712 3315 
Q 1094 3584 1881 3584 
Q 2191 3584 2531 3537 
Q 2872 3491 3272 3391 
z
" transform="scale(0.015625)"/>
      <path id="DejaVuSans-Bold-66" d="M 2841 4863 
L 2841 4128 
L 2222 4128 
Q 1984 4128 1890 4042 
Q 1797 3956 1797 3744 
L 1797 3500 
L 2753 3500 
L 2753 2700 
L 1797 2700 
L 1797 0 
L 678 0 
L 678 2700 
L 122 2700 
L 122 3500 
L 678 3500 
L 678 3744 
Q 678 4316 997 4589 
Q 1316 4863 1984 4863 
L 2841 4863 
z
" transform="scale(0.015625)"/>
      <path id="DejaVuSans-Bold-6c" d="M 538 4863 
L 1656 4863 
L 1656 0 
L 538 0 
L 538 4863 
z
" transform="scale(0.015625)"/>
      <path id="DejaVuSans-Bold-65" d="M 4031 1759 
L 4031 1441 
L 1416 1441 
Q 1456 1047 1700 850 
Q 1944 653 2381 653 
Q 2734 653 3104 758 
Q 3475 863 3866 1075 
L 3866 213 
Q 3469 63 3072 -14 
Q 2675 -91 2278 -91 
Q 1328 -91 801 392 
Q 275 875 275 1747 
Q 275 2603 792 3093 
Q 1309 3584 2216 3584 
Q 3041 3584 3536 3087 
Q 4031 2591 4031 1759 
z
M 2881 2131 
Q 2881 2450 2695 2645 
Q 2509 2841 2209 2841 
Q 1884 2841 1681 2658 
Q 1478 2475 1428 2131 
L 2881 2131 
z
" transform="scale(0.015625)"/>
      <path id="DejaVuSans-Bold-64" d="M 2919 2988 
L 2919 4863 
L 4044 4863 
L 4044 0 
L 2919 0 
L 2919 506 
Q 2688 197 2409 53 
Q 2131 -91 1766 -91 
Q 1119 -91 703 423 
Q 288 938 288 1747 
Q 288 2556 703 3070 
Q 1119 3584 1766 3584 
Q 2128 3584 2408 3439 
Q 2688 3294 2919 2988 
z
M 2181 722 
Q 2541 722 2730 984 
Q 2919 1247 2919 1747 
Q 2919 2247 2730 2509 
Q 2541 2772 2181 2772 
Q 1825 2772 1636 2509 
Q 1447 2247 1447 1747 
Q 1447 1247 1636 984 
Q 1825 722 2181 722 
z
" transform="scale(0.015625)"/>
      <path id="DejaVuSans-Bold-62" d="M 2400 722 
Q 2759 722 2948 984 
Q 3138 1247 3138 1747 
Q 3138 2247 2948 2509 
Q 2759 2772 2400 2772 
Q 2041 2772 1848 2508 
Q 1656 2244 1656 1747 
Q 1656 1250 1848 986 
Q 2041 722 2400 722 
z
M 1656 2988 
Q 1888 3294 2169 3439 
Q 2450 3584 2816 3584 
Q 3463 3584 3878 3070 
Q 4294 2556 4294 1747 
Q 4294 938 3878 423 
Q 3463 -91 2816 -91 
Q 2450 -91 2169 54 
Q 1888 200 1656 506 
L 1656 0 
L 538 0 
L 538 4863 
L 1656 4863 
L 1656 2988 
z
" transform="scale(0.015625)"/>
      <path id="DejaVuSans-Bold-79" d="M 78 3500 
L 1197 3500 
L 2138 1125 
L 2938 3500 
L 4056 3500 
L 2584 -331 
Q 2363 -916 2067 -1148 
Q 1772 -1381 1288 -1381 
L 641 -1381 
L 641 -647 
L 991 -647 
Q 1275 -647 1404 -556 
Q 1534 -466 1606 -231 
L 1638 -134 
L 78 3500 
z
" transform="scale(0.015625)"/>
      <path id="DejaVuSans-Bold-74" d="M 1759 4494 
L 1759 3500 
L 2913 3500 
L 2913 2700 
L 1759 2700 
L 1759 1216 
Q 1759 972 1856 886 
Q 1953 800 2241 800 
L 2816 800 
L 2816 0 
L 1856 0 
Q 1194 0 917 276 
Q 641 553 641 1216 
L 641 2700 
L 84 2700 
L 84 3500 
L 641 3500 
L 641 4494 
L 1759 4494 
z
" transform="scale(0.015625)"/>
      <path id="DejaVuSans-Bold-72" d="M 3138 2547 
Q 2991 2616 2845 2648 
Q 2700 2681 2553 2681 
Q 2122 2681 1889 2404 
Q 1656 2128 1656 1613 
L 1656 0 
L 538 0 
L 538 3500 
L 1656 3500 
L 1656 2925 
Q 1872 3269 2151 3426 
Q 2431 3584 2822 3584 
Q 2878 3584 2943 3579 
Q 3009 3575 3134 3559 
L 3138 2547 
z
" transform="scale(0.015625)"/>
      <path id="DejaVuSans-Bold-67" d="M 2919 594 
Q 2688 288 2409 144 
Q 2131 0 1766 0 
Q 1125 0 706 504 
Q 288 1009 288 1791 
Q 288 2575 706 3076 
Q 1125 3578 1766 3578 
Q 2131 3578 2409 3434 
Q 2688 3291 2919 2981 
L 2919 3500 
L 4044 3500 
L 4044 353 
Q 4044 -491 3511 -936 
Q 2978 -1381 1966 -1381 
Q 1638 -1381 1331 -1331 
Q 1025 -1281 716 -1178 
L 716 -306 
Q 1009 -475 1290 -558 
Q 1572 -641 1856 -641 
Q 2406 -641 2662 -400 
Q 2919 -159 2919 353 
L 2919 594 
z
M 2181 2772 
Q 1834 2772 1640 2515 
Q 1447 2259 1447 1791 
Q 1447 1309 1634 1061 
Q 1822 813 2181 813 
Q 2531 813 2725 1069 
Q 2919 1325 2919 1791 
Q 2919 2259 2725 2515 
Q 2531 2772 2181 2772 
z
" transform="scale(0.015625)"/>
      <path id="DejaVuSans-Bold-2014" d="M 344 2156 
L 6056 2156 
L 6056 1350 
L 344 1350 
L 344 2156 
z
" transform="scale(0.015625)"/>
      <path id="DejaVuSans-Bold-61" d="M 2106 1575 
Q 1756 1575 1579 1456 
Q 1403 1338 1403 1106 
Q 1403 894 1545 773 
Q 1688 653 1941 653 
Q 2256 653 2472 879 
Q 2688 1106 2688 1447 
L 2688 1575 
L 2106 1575 
z
M 3816 1997 
L 3816 0 
L 2688 0 
L 2688 519 
Q 2463 200 2181 54 
Q 1900 -91 1497 -91 
Q 953 -91 614 226 
Q 275 544 275 1050 
Q 275 1666 698 1953 
Q 1122 2241 2028 2241 
L 2688 2241 
L 2688 2328 
Q 2688 2594 2478 2717 
Q 2269 2841 1825 2841 
Q 1466 2841 1156 2769 
Q 847 2697 581 2553 
L 581 3406 
Q 941 3494 1303 3539 
Q 1666 3584 2028 3584 
Q 2975 3584 3395 3211 
Q 3816 2838 3816 1997 
z
" transform="scale(0.015625)"/>
      <path id="DejaVuSans-Bold-6e" d="M 4056 2131 
L 4056 0 
L 2931 0 
L 2931 347 
L 2931 1631 
Q 2931 2084 2911 2256 
Q 2891 2428 2841 2509 
Q 2775 2619 2662 2680 
Q 2550 2741 2406 2741 
Q 2056 2741 1856 2470 
Q 1656 2200 1656 1722 
L 1656 0 
L 538 0 
L 538 3500 
L 1656 3500 
L 1656 2988 
Q 1909 3294 2193 3439 
Q 2478 3584 2822 3584 
Q 3428 3584 3742 3212 
Q 4056 2841 4056 2131 
z
" transform="scale(0.015625)"/>
      <path id="DejaVuSans-Bold-77" d="M 225 3500 
L 1313 3500 
L 1900 1088 
L 2491 3500 
L 3425 3500 
L 4013 1113 
L 4603 3500 
L 5691 3500 
L 4769 0 
L 3547 0 
L 2956 2406 
L 2369 0 
L 1147 0 
L 225 3500 
z
" transform="scale(0.015625)"/>
      <path id="DejaVuSans-Bold-75" d="M 500 1363 
L 500 3500 
L 1625 3500 
L 1625 3150 
Q 1625 2866 1622 2436 
Q 1619 2006 1619 1863 
Q 1619 1441 1641 1255 
Q 1663 1069 1716 984 
Q 1784 875 1895 815 
Q 2006 756 2150 756 
Q 2500 756 2700 1025 
Q 2900 1294 2900 1772 
L 2900 3500 
L 4019 3500 
L 4019 0 
L 2900 0 
L 2900 506 
Q 2647 200 2364 54 
Q 2081 -91 1741 -91 
Q 1134 -91 817 281 
Q 500 653 500 1363 
z
" transform="scale(0.015625)"/>
      <path id="DejaVuSans-Bold-3f" d="M 2216 1575 
L 1088 1575 
L 1088 1728 
Q 1088 1984 1191 2182 
Q 1294 2381 1625 2688 
L 1825 2869 
Q 2003 3031 2086 3175 
Q 2169 3319 2169 3463 
Q 2169 3681 2019 3804 
Q 1869 3928 1600 3928 
Q 1347 3928 1053 3823 
Q 759 3719 441 3513 
L 441 4494 
Q 819 4625 1131 4687 
Q 1444 4750 1734 4750 
Q 2497 4750 2897 4439 
Q 3297 4128 3297 3531 
Q 3297 3225 3175 2983 
Q 3053 2741 2759 2463 
L 2559 2284 
Q 2347 2091 2281 1973 
Q 2216 1856 2216 1716 
L 2216 1575 
z
M 1088 1113 
L 2216 1113 
L 2216 0 
L 1088 0 
L 1088 1113 
z
" transform="scale(0.015625)"/>
     </defs>
     <use xlink:href="#DejaVuSans-Bold-57"/>
     <use xlink:href="#DejaVuSans-Bold-68" transform="translate(110.302734 0)"/>
     <use xlink:href="#DejaVuSans-Bold-6f" transform="translate(181.494141 0)"/>
     <use xlink:href="#DejaVuSans-Bold-20" transform="translate(250.195312 0)"/>
     <use xlink:href="#DejaVuSans-Bold-69" transform="translate(285.009766 0)"/>
     <use xlink:href="#DejaVuSans-Bold-73" transform="translate(319.287109 0)"/>
     <use xlink:href="#DejaVuSans-Bold-20" transform="translate(378.808594 0)"/>
     <use xlink:href="#DejaVuSans-Bold-66" transform="translate(413.623047 0)"/>
     <use xlink:href="#DejaVuSans-Bold-6f" transform="translate(457.128906 0)"/>
     <use xlink:href="#DejaVuSans-Bold-6f" transform="translate(525.830078 0)"/>
     <use xlink:href="#DejaVuSans-Bold-6c" transform="translate(594.53125 0)"/>
     <use xlink:href="#DejaVuSans-Bold-65" transform="translate(628.808594 0)"/>
     <use xlink:href="#DejaVuSans-Bold-64" transform="translate(696.630859 0)"/>
     <use xlink:href="#DejaVuSans-Bold-20" transform="translate(768.212891 0)"/>
     <use xlink:href="#DejaVuSans-Bold-62" transform="translate(803.027344 0)"/>
     <use xlink:href="#DejaVuSans-Bold-79" transform="translate(874.609375 0)"/>
     <use xlink:href="#DejaVuSans-Bold-20" transform="translate(939.794922 0)"/>
     <use xlink:href="#DejaVuSans-Bold-74" transform="translate(974.609375 0)"/>
     <use xlink:href="#DejaVuSans-Bold-68" transform="translate(1022.412109 0)"/>
     <use xlink:href="#DejaVuSans-Bold-65" transform="translate(1093.603516 0)"/>
     <use xlink:href="#DejaVuSans-Bold-20" transform="translate(1161.425781 0)"/>
     <use xlink:href="#DejaVuSans-Bold-66" transform="translate(1196.240234 0)"/>
     <use xlink:href="#DejaVuSans-Bold-6f" transform="translate(1239.746094 0)"/>
     <use xlink:href="#DejaVuSans-Bold-72" transform="translate(1308.447266 0)"/>
     <use xlink:href="#DejaVuSans-Bold-67" transform="translate(1357.763672 0)"/>
     <use xlink:href="#DejaVuSans-Bold-65" transform="translate(1429.345703 0)"/>
     <use xlink:href="#DejaVuSans-Bold-72" transform="translate(1497.167969 0)"/>
     <use xlink:href="#DejaVuSans-Bold-79" transform="translate(1546.484375 0)"/>
     <use xlink:href="#DejaVuSans-Bold-20" transform="translate(1611.669922 0)"/>
     <use xlink:href="#DejaVuSans-Bold-2014" transform="translate(1646.484375 0)"/>
     <use xlink:href="#DejaVuSans-Bold-20" transform="translate(1746.484375 0)"/>
     <use xlink:href="#DejaVuSans-Bold-61" transform="translate(1781.298828 0)"/>
     <use xlink:href="#DejaVuSans-Bold-6e" transform="translate(1848.779297 0)"/>
     <use xlink:href="#DejaVuSans-Bold-64" transform="translate(1919.970703 0)"/>
     <use xlink:href="#DejaVuSans-Bold-20" transform="translate(1991.552734 0)"/>
     <use xlink:href="#DejaVuSans-Bold-77" transform="translate(2026.367188 0)"/>
     <use xlink:href="#DejaVuSans-Bold-68" transform="translate(2118.75 0)"/>
     <use xlink:href="#DejaVuSans-Bold-6f" transform="translate(2189.941406 0)"/>
     <use xlink:href="#DejaVuSans-Bold-20" transform="translate(2258.642578 0)"/>
     <use xlink:href="#DejaVuSans-Bold-73" transform="translate(2293.457031 0)"/>
     <use xlink:href="#DejaVuSans-Bold-65" transform="translate(2352.978516 0)"/>
     <use xlink:href="#DejaVuSans-Bold-65" transform="translate(2420.800781 0)"/>
     <use xlink:href="#DejaVuSans-Bold-73" transform="translate(2488.623047 0)"/>
     <use xlink:href="#DejaVuSans-Bold-20" transform="translate(2548.144531 0)"/>
     <use xlink:href="#DejaVuSans-Bold-74" transform="translate(2582.958984 0)"/>
     <use xlink:href="#DejaVuSans-Bold-68" transform="translate(2630.761719 0)"/>
     <use xlink:href="#DejaVuSans-Bold-72" transform="translate(2701.953125 0)"/>
     <use xlink:href="#DejaVuSans-Bold-6f" transform="translate(2751.269531 0)"/>
     <use xlink:href="#DejaVuSans-Bold-75" transform="translate(2819.970703 0)"/>
     <use xlink:href="#DejaVuSans-Bold-67" transform="translate(2891.162109 0)"/>
     <use xlink:href="#DejaVuSans-Bold-68" transform="translate(2962.744141 0)"/>
     <use xlink:href="#DejaVuSans-Bold-20" transform="translate(3033.935547 0)"/>
     <use xlink:href="#DejaVuSans-Bold-69" transform="translate(3068.75 0)"/>
     <use xlink:href="#DejaVuSans-Bold-74" transform="translate(3103.027344 0)"/>
     <use xlink:href="#DejaVuSans-Bold-3f" transform="translate(3150.830078 0)"/>
    </g>
   </g>
   <g id="line2d_27">
    <defs>
     <path id="mafc0086646" d="M 0 5.5 
C 1.458617 5.5 2.857689 4.920485 3.889087 3.889087 
C 4.920485 2.857689 5.5 1.458617 5.5 0 
C 5.5 -1.458617 4.920485 -2.857689 3.889087 -3.889087 
C 2.857689 -4.920485 1.458617 -5.5 0 -5.5 
C -1.458617 -5.5 -2.857689 -4.920485 -3.889087 -3.889087 
C -4.920485 -2.857689 -5.5 -1.458617 -5.5 0 
C -5.5 1.458617 -4.920485 2.857689 -3.889087 3.889087 
C -2.857689 4.920485 -1.458617 5.5 0 5.5 
z
" style="stroke: #ffffff; stroke-width: 1.2"/>
    </defs>
    <g clip-path="url(#p412aa9ed23)">
     <use xlink:href="#mafc0086646" x="463.861195" y="81.281028" style="fill: #2c5f8a; stroke: #ffffff; stroke-width: 1.2"/>
    </g>
   </g>
   <g id="line2d_28">
    <defs>
     <path id="m809ea247a2" d="M 0 5.5 
C 1.458617 5.5 2.857689 4.920485 3.889087 3.889087 
C 4.920485 2.857689 5.5 1.458617 5.5 0 
C 5.5 -1.458617 4.920485 -2.857689 3.889087 -3.889087 
C 2.857689 -4.920485 1.458617 -5.5 0 -5.5 
C -1.458617 -5.5 -2.857689 -4.920485 -3.889087 -3.889087 
C -4.920485 -2.857689 -5.5 -1.458617 -5.5 0 
C -5.5 1.458617 -4.920485 2.857689 -3.889087 3.889087 
C -2.857689 4.920485 -1.458617 5.5 0 5.5 
z
" style="stroke: #9aa0a6; stroke-width: 2"/>
    </defs>
    <g clip-path="url(#p412aa9ed23)">
     <use xlink:href="#m809ea247a2" x="344.322256" y="110.988926" style="fill: #ffffff; stroke: #9aa0a6; stroke-width: 2"/>
    </g>
   </g>
   <g id="line2d_29">
    <defs>
     <path id="mb8f9888c2c" d="M 0 5.5 
C 1.458617 5.5 2.857689 4.920485 3.889087 3.889087 
C 4.920485 2.857689 5.5 1.458617 5.5 0 
C 5.5 -1.458617 4.920485 -2.857689 3.889087 -3.889087 
C 2.857689 -4.920485 1.458617 -5.5 0 -5.5 
C -1.458617 -5.5 -2.857689 -4.920485 -3.889087 -3.889087 
C -4.920485 -2.857689 -5.5 -1.458617 -5.5 0 
C -5.5 1.458617 -4.920485 2.857689 -3.889087 3.889087 
C -2.857689 4.920485 -1.458617 5.5 0 5.5 
z
" style="stroke: #ffffff; stroke-width: 1.2"/>
    </defs>
    <g clip-path="url(#p412aa9ed23)">
     <use xlink:href="#mb8f9888c2c" x="172.59026" y="140.696825" style="fill: #b03030; stroke: #ffffff; stroke-width: 1.2"/>
    </g>
   </g>
   <g id="line2d_30">
    <g clip-path="url(#p412aa9ed23)">
     <use xlink:href="#mafc0086646" x="432.433117" y="204.568807" style="fill: #2c5f8a; stroke: #ffffff; stroke-width: 1.2"/>
    </g>
   </g>
   <g id="line2d_31">
    <g clip-path="url(#p412aa9ed23)">
     <use xlink:href="#mb8f9888c2c" x="267.435709" y="234.276706" style="fill: #b03030; stroke: #ffffff; stroke-width: 1.2"/>
    </g>
   </g>
   <g id="line2d_32">
    <g clip-path="url(#p412aa9ed23)">
     <use xlink:href="#mb8f9888c2c" x="162.488377" y="263.984604" style="fill: #b03030; stroke: #ffffff; stroke-width: 1.2"/>
    </g>
   </g>
   <g id="line2d_33">
    <g clip-path="url(#p412aa9ed23)">
     <use xlink:href="#m809ea247a2" x="348.250766" y="327.856586" style="fill: #ffffff; stroke: #9aa0a6; stroke-width: 2"/>
    </g>
   </g>
   <g id="line2d_34">
    <g clip-path="url(#p412aa9ed23)">
     <use xlink:href="#m809ea247a2" x="358.352648" y="357.564485" style="fill: #ffffff; stroke: #9aa0a6; stroke-width: 2"/>
    </g>
   </g>
   <g id="line2d_35">
    <g clip-path="url(#p412aa9ed23)">
     <use xlink:href="#mb8f9888c2c" x="246.670729" y="387.272384" style="fill: #b03030; stroke: #ffffff; stroke-width: 1.2"/>
    </g>
   </g>
   <g id="text_19">
    <!-- 0.725 -->
    <g style="fill: #2c5f8a" transform="translate(473.963077 83.902434) scale(0.095 -0.095)">
     <defs>
      <path id="DejaVuSans-Bold-30" d="M 2944 2338 
Q 2944 3213 2780 3570 
Q 2616 3928 2228 3928 
Q 1841 3928 1675 3570 
Q 1509 3213 1509 2338 
Q 1509 1453 1675 1090 
Q 1841 728 2228 728 
Q 2613 728 2778 1090 
Q 2944 1453 2944 2338 
z
M 4147 2328 
Q 4147 1169 3647 539 
Q 3147 -91 2228 -91 
Q 1306 -91 806 539 
Q 306 1169 306 2328 
Q 306 3491 806 4120 
Q 1306 4750 2228 4750 
Q 3147 4750 3647 4120 
Q 4147 3491 4147 2328 
z
" transform="scale(0.015625)"/>
      <path id="DejaVuSans-Bold-2e" d="M 653 1209 
L 1778 1209 
L 1778 0 
L 653 0 
L 653 1209 
z
" transform="scale(0.015625)"/>
      <path id="DejaVuSans-Bold-37" d="M 428 4666 
L 3944 4666 
L 3944 3988 
L 2125 0 
L 953 0 
L 2675 3781 
L 428 3781 
L 428 4666 
z
" transform="scale(0.015625)"/>
      <path id="DejaVuSans-Bold-32" d="M 1844 884 
L 3897 884 
L 3897 0 
L 506 0 
L 506 884 
L 2209 2388 
Q 2438 2594 2547 2791 
Q 2656 2988 2656 3200 
Q 2656 3528 2436 3728 
Q 2216 3928 1850 3928 
Q 1569 3928 1234 3808 
Q 900 3688 519 3450 
L 519 4475 
Q 925 4609 1322 4679 
Q 1719 4750 2100 4750 
Q 2938 4750 3402 4381 
Q 3866 4013 3866 3353 
Q 3866 2972 3669 2642 
Q 3472 2313 2841 1759 
L 1844 884 
z
" transform="scale(0.015625)"/>
      <path id="DejaVuSans-Bold-35" d="M 678 4666 
L 3669 4666 
L 3669 3781 
L 1638 3781 
L 1638 3059 
Q 1775 3097 1914 3117 
Q 2053 3138 2203 3138 
Q 3056 3138 3531 2711 
Q 4006 2284 4006 1522 
Q 4006 766 3489 337 
Q 2972 -91 2053 -91 
Q 1656 -91 1267 -14 
Q 878 63 494 219 
L 494 1166 
Q 875 947 1217 837 
Q 1559 728 1863 728 
Q 2300 728 2551 942 
Q 2803 1156 2803 1522 
Q 2803 1891 2551 2103 
Q 2300 2316 1863 2316 
Q 1603 2316 1309 2248 
Q 1016 2181 678 2041 
L 678 4666 
z
" transform="scale(0.015625)"/>
     </defs>
     <use xlink:href="#DejaVuSans-Bold-30"/>
     <use xlink:href="#DejaVuSans-Bold-2e" transform="translate(69.580078 0)"/>
     <use xlink:href="#DejaVuSans-Bold-37" transform="translate(107.568359 0)"/>
     <use xlink:href="#DejaVuSans-Bold-32" transform="translate(177.148438 0)"/>
     <use xlink:href="#DejaVuSans-Bold-35" transform="translate(246.728516 0)"/>
    </g>
   </g>
   <g id="text_20">
    <!-- 0.512 -->
    <g style="fill: #6b7075" transform="translate(354.424139 113.610332) scale(0.095 -0.095)">
     <defs>
      <path id="DejaVuSans-Bold-31" d="M 750 831 
L 1813 831 
L 1813 3847 
L 722 3622 
L 722 4441 
L 1806 4666 
L 2950 4666 
L 2950 831 
L 4013 831 
L 4013 0 
L 750 0 
L 750 831 
z
" transform="scale(0.015625)"/>
     </defs>
     <use xlink:href="#DejaVuSans-Bold-30"/>
     <use xlink:href="#DejaVuSans-Bold-2e" transform="translate(69.580078 0)"/>
     <use xlink:href="#DejaVuSans-Bold-35" transform="translate(107.568359 0)"/>
     <use xlink:href="#DejaVuSans-Bold-31" transform="translate(177.148438 0)"/>
     <use xlink:href="#DejaVuSans-Bold-32" transform="translate(246.728516 0)"/>
    </g>
   </g>
   <g id="text_21">
    <!-- 0.206 -->
    <g style="fill: #b03030" transform="translate(132.440174 143.318231) scale(0.095 -0.095)">
     <defs>
      <path id="DejaVuSans-Bold-36" d="M 2316 2303 
Q 2000 2303 1842 2098 
Q 1684 1894 1684 1484 
Q 1684 1075 1842 870 
Q 2000 666 2316 666 
Q 2634 666 2792 870 
Q 2950 1075 2950 1484 
Q 2950 1894 2792 2098 
Q 2634 2303 2316 2303 
z
M 3803 4544 
L 3803 3681 
Q 3506 3822 3243 3889 
Q 2981 3956 2731 3956 
Q 2194 3956 1894 3657 
Q 1594 3359 1544 2772 
Q 1750 2925 1990 3001 
Q 2231 3078 2516 3078 
Q 3231 3078 3670 2659 
Q 4109 2241 4109 1563 
Q 4109 813 3618 361 
Q 3128 -91 2303 -91 
Q 1394 -91 895 523 
Q 397 1138 397 2266 
Q 397 3422 980 4083 
Q 1563 4744 2578 4744 
Q 2900 4744 3203 4694 
Q 3506 4644 3803 4544 
z
" transform="scale(0.015625)"/>
     </defs>
     <use xlink:href="#DejaVuSans-Bold-30"/>
     <use xlink:href="#DejaVuSans-Bold-2e" transform="translate(69.580078 0)"/>
     <use xlink:href="#DejaVuSans-Bold-32" transform="translate(107.568359 0)"/>
     <use xlink:href="#DejaVuSans-Bold-30" transform="translate(177.148438 0)"/>
     <use xlink:href="#DejaVuSans-Bold-36" transform="translate(246.728516 0)"/>
    </g>
   </g>
   <g id="text_22">
    <!-- 0.669 -->
    <g style="fill: #2c5f8a" transform="translate(442.535 207.190213) scale(0.095 -0.095)">
     <defs>
      <path id="DejaVuSans-Bold-39" d="M 641 103 
L 641 966 
Q 928 831 1190 764 
Q 1453 697 1709 697 
Q 2247 697 2547 995 
Q 2847 1294 2900 1881 
Q 2688 1725 2447 1647 
Q 2206 1569 1925 1569 
Q 1209 1569 770 1986 
Q 331 2403 331 3084 
Q 331 3838 820 4291 
Q 1309 4744 2131 4744 
Q 3044 4744 3544 4128 
Q 4044 3513 4044 2388 
Q 4044 1231 3459 570 
Q 2875 -91 1856 -91 
Q 1528 -91 1228 -42 
Q 928 6 641 103 
z
M 2125 2350 
Q 2441 2350 2600 2554 
Q 2759 2759 2759 3169 
Q 2759 3575 2600 3781 
Q 2441 3988 2125 3988 
Q 1809 3988 1650 3781 
Q 1491 3575 1491 3169 
Q 1491 2759 1650 2554 
Q 1809 2350 2125 2350 
z
" transform="scale(0.015625)"/>
     </defs>
     <use xlink:href="#DejaVuSans-Bold-30"/>
     <use xlink:href="#DejaVuSans-Bold-2e" transform="translate(69.580078 0)"/>
     <use xlink:href="#DejaVuSans-Bold-36" transform="translate(107.568359 0)"/>
     <use xlink:href="#DejaVuSans-Bold-36" transform="translate(177.148438 0)"/>
     <use xlink:href="#DejaVuSans-Bold-39" transform="translate(246.728516 0)"/>
    </g>
   </g>
   <g id="text_23">
    <!-- 0.375 -->
    <g style="fill: #b03030" transform="translate(227.285624 236.898112) scale(0.095 -0.095)">
     <defs>
      <path id="DejaVuSans-Bold-33" d="M 2981 2516 
Q 3453 2394 3698 2092 
Q 3944 1791 3944 1325 
Q 3944 631 3412 270 
Q 2881 -91 1863 -91 
Q 1503 -91 1142 -33 
Q 781 25 428 141 
L 428 1069 
Q 766 900 1098 814 
Q 1431 728 1753 728 
Q 2231 728 2486 893 
Q 2741 1059 2741 1369 
Q 2741 1688 2480 1852 
Q 2219 2016 1709 2016 
L 1228 2016 
L 1228 2791 
L 1734 2791 
Q 2188 2791 2409 2933 
Q 2631 3075 2631 3366 
Q 2631 3634 2415 3781 
Q 2200 3928 1806 3928 
Q 1516 3928 1219 3862 
Q 922 3797 628 3669 
L 628 4550 
Q 984 4650 1334 4700 
Q 1684 4750 2022 4750 
Q 2931 4750 3382 4451 
Q 3834 4153 3834 3553 
Q 3834 3144 3618 2883 
Q 3403 2622 2981 2516 
z
" transform="scale(0.015625)"/>
     </defs>
     <use xlink:href="#DejaVuSans-Bold-30"/>
     <use xlink:href="#DejaVuSans-Bold-2e" transform="translate(69.580078 0)"/>
     <use xlink:href="#DejaVuSans-Bold-33" transform="translate(107.568359 0)"/>
     <use xlink:href="#DejaVuSans-Bold-37" transform="translate(177.148438 0)"/>
     <use xlink:href="#DejaVuSans-Bold-35" transform="translate(246.728516 0)"/>
    </g>
   </g>
   <g id="text_24">
    <!-- 0.188 -->
    <g style="fill: #b03030" transform="translate(122.338292 266.606011) scale(0.095 -0.095)">
     <defs>
      <path id="DejaVuSans-Bold-38" d="M 2228 2088 
Q 1891 2088 1709 1903 
Q 1528 1719 1528 1375 
Q 1528 1031 1709 848 
Q 1891 666 2228 666 
Q 2563 666 2741 848 
Q 2919 1031 2919 1375 
Q 2919 1722 2741 1905 
Q 2563 2088 2228 2088 
z
M 1350 2484 
Q 925 2613 709 2878 
Q 494 3144 494 3541 
Q 494 4131 934 4440 
Q 1375 4750 2228 4750 
Q 3075 4750 3515 4442 
Q 3956 4134 3956 3541 
Q 3956 3144 3739 2878 
Q 3522 2613 3097 2484 
Q 3572 2353 3814 2058 
Q 4056 1763 4056 1313 
Q 4056 619 3595 264 
Q 3134 -91 2228 -91 
Q 1319 -91 855 264 
Q 391 619 391 1313 
Q 391 1763 633 2058 
Q 875 2353 1350 2484 
z
M 1631 3419 
Q 1631 3141 1786 2991 
Q 1941 2841 2228 2841 
Q 2509 2841 2662 2991 
Q 2816 3141 2816 3419 
Q 2816 3697 2662 3845 
Q 2509 3994 2228 3994 
Q 1941 3994 1786 3844 
Q 1631 3694 1631 3419 
z
" transform="scale(0.015625)"/>
     </defs>
     <use xlink:href="#DejaVuSans-Bold-30"/>
     <use xlink:href="#DejaVuSans-Bold-2e" transform="translate(69.580078 0)"/>
     <use xlink:href="#DejaVuSans-Bold-31" transform="translate(107.568359 0)"/>
     <use xlink:href="#DejaVuSans-Bold-38" transform="translate(177.148438 0)"/>
     <use xlink:href="#DejaVuSans-Bold-38" transform="translate(246.728516 0)"/>
    </g>
   </g>
   <g id="text_25">
    <!-- 0.519 -->
    <g style="fill: #6b7075" transform="translate(358.352648 330.477993) scale(0.095 -0.095)">
     <use xlink:href="#DejaVuSans-Bold-30"/>
     <use xlink:href="#DejaVuSans-Bold-2e" transform="translate(69.580078 0)"/>
     <use xlink:href="#DejaVuSans-Bold-35" transform="translate(107.568359 0)"/>
     <use xlink:href="#DejaVuSans-Bold-31" transform="translate(177.148438 0)"/>
     <use xlink:href="#DejaVuSans-Bold-39" transform="translate(246.728516 0)"/>
    </g>
   </g>
   <g id="text_26">
    <!-- 0.537 -->
    <g style="fill: #6b7075" transform="translate(368.45453 360.185891) scale(0.095 -0.095)">
     <use xlink:href="#DejaVuSans-Bold-30"/>
     <use xlink:href="#DejaVuSans-Bold-2e" transform="translate(69.580078 0)"/>
     <use xlink:href="#DejaVuSans-Bold-35" transform="translate(107.568359 0)"/>
     <use xlink:href="#DejaVuSans-Bold-33" transform="translate(177.148438 0)"/>
     <use xlink:href="#DejaVuSans-Bold-37" transform="translate(246.728516 0)"/>
    </g>
   </g>
   <g id="text_27">
    <!-- 0.338 -->
    <g style="fill: #b03030" transform="translate(206.520644 389.89379) scale(0.095 -0.095)">
     <use xlink:href="#DejaVuSans-Bold-30"/>
     <use xlink:href="#DejaVuSans-Bold-2e" transform="translate(69.580078 0)"/>
     <use xlink:href="#DejaVuSans-Bold-33" transform="translate(107.568359 0)"/>
     <use xlink:href="#DejaVuSans-Bold-33" transform="translate(177.148438 0)"/>
     <use xlink:href="#DejaVuSans-Bold-38" transform="translate(246.728516 0)"/>
    </g>
   </g>
   <g id="legend_1">
    <g id="patch_4">
     <path d="M 402.336311 282.466359 
L 522.100998 282.466359 
Q 523.900998 282.466359 523.900998 280.666359 
L 523.900998 255.145734 
Q 523.900998 253.345734 522.100998 253.345734 
L 402.336311 253.345734 
Q 400.536311 253.345734 400.536311 255.145734 
L 400.536311 280.666359 
Q 400.536311 282.466359 402.336311 282.466359 
z
" style="fill: #ffffff; opacity: 0.95; stroke: #c8c8c8; stroke-width: 0.8; stroke-linejoin: miter"/>
    </g>
    <g id="line2d_36">
     <defs>
      <path id="m005263be9c" d="M 0 5 
C 1.326016 5 2.597899 4.473168 3.535534 3.535534 
C 4.473168 2.597899 5 1.326016 5 0 
C 5 -1.326016 4.473168 -2.597899 3.535534 -3.535534 
C 2.597899 -4.473168 1.326016 -5 0 -5 
C -1.326016 -5 -2.597899 -4.473168 -3.535534 -3.535534 
C -4.473168 -2.597899 -5 -1.326016 -5 0 
C -5 1.326016 -4.473168 2.597899 -3.535534 3.535534 
C -2.597899 4.473168 -1.326016 5 0 5 
z
" style="stroke: #ffffff; stroke-width: 1.2"/>
     </defs>
     <g>
      <use xlink:href="#m005263be9c" x="413.136311" y="260.634328" style="fill: #444444; stroke: #ffffff; stroke-width: 1.2"/>
     </g>
    </g>
    <g id="text_28">
     <!-- significant vs chance -->
     <g transform="translate(425.736311 263.784328) scale(0.09 -0.09)">
      <defs>
       <path id="DejaVuSans-66" d="M 2375 4863 
L 2375 4384 
L 1825 4384 
Q 1516 4384 1395 4259 
Q 1275 4134 1275 3809 
L 1275 3500 
L 2222 3500 
L 2222 3053 
L 1275 3053 
L 1275 0 
L 697 0 
L 697 3053 
L 147 3053 
L 147 3500 
L 697 3500 
L 697 3744 
Q 697 4328 969 4595 
Q 1241 4863 1831 4863 
L 2375 4863 
z
" transform="scale(0.015625)"/>
       <path id="DejaVuSans-76" d="M 191 3500 
L 800 3500 
L 1894 563 
L 2988 3500 
L 3597 3500 
L 2284 0 
L 1503 0 
L 191 3500 
z
" transform="scale(0.015625)"/>
      </defs>
      <use xlink:href="#DejaVuSans-73"/>
      <use xlink:href="#DejaVuSans-69" transform="translate(52.099609 0)"/>
      <use xlink:href="#DejaVuSans-67" transform="translate(79.882812 0)"/>
      <use xlink:href="#DejaVuSans-6e" transform="translate(143.359375 0)"/>
      <use xlink:href="#DejaVuSans-69" transform="translate(206.738281 0)"/>
      <use xlink:href="#DejaVuSans-66" transform="translate(234.521484 0)"/>
      <use xlink:href="#DejaVuSans-69" transform="translate(269.726562 0)"/>
      <use xlink:href="#DejaVuSans-63" transform="translate(297.509766 0)"/>
      <use xlink:href="#DejaVuSans-61" transform="translate(352.490234 0)"/>
      <use xlink:href="#DejaVuSans-6e" transform="translate(413.769531 0)"/>
      <use xlink:href="#DejaVuSans-74" transform="translate(477.148438 0)"/>
      <use xlink:href="#DejaVuSans-20" transform="translate(516.357422 0)"/>
      <use xlink:href="#DejaVuSans-76" transform="translate(548.144531 0)"/>
      <use xlink:href="#DejaVuSans-73" transform="translate(607.324219 0)"/>
      <use xlink:href="#DejaVuSans-20" transform="translate(659.423828 0)"/>
      <use xlink:href="#DejaVuSans-63" transform="translate(691.210938 0)"/>
      <use xlink:href="#DejaVuSans-68" transform="translate(746.191406 0)"/>
      <use xlink:href="#DejaVuSans-61" transform="translate(809.570312 0)"/>
      <use xlink:href="#DejaVuSans-6e" transform="translate(870.849609 0)"/>
      <use xlink:href="#DejaVuSans-63" transform="translate(934.228516 0)"/>
      <use xlink:href="#DejaVuSans-65" transform="translate(989.208984 0)"/>
     </g>
    </g>
    <g id="line2d_37">
     <defs>
      <path id="m251e2e095e" d="M 0 5 
C 1.326016 5 2.597899 4.473168 3.535534 3.535534 
C 4.473168 2.597899 5 1.326016 5 0 
C 5 -1.326016 4.473168 -2.597899 3.535534 -3.535534 
C 2.597899 -4.473168 1.326016 -5 0 -5 
C -1.326016 -5 -2.597899 -4.473168 -3.535534 -3.535534 
C -4.473168 -2.597899 -5 -1.326016 -5 0 
C -5 1.326016 -4.473168 2.597899 -3.535534 3.535534 
C -2.597899 4.473168 -1.326016 5 0 5 
z
" style="stroke: #9aa0a6; stroke-width: 2"/>
     </defs>
     <g>
      <use xlink:href="#m251e2e095e" x="413.136311" y="273.844641" style="fill: #ffffff; stroke: #9aa0a6; stroke-width: 2"/>
     </g>
    </g>
    <g id="text_29">
     <!-- n.s. (at chance) -->
     <g transform="translate(425.736311 276.994641) scale(0.09 -0.09)">
      <defs>
       <path id="DejaVuSans-28" d="M 1984 4856 
Q 1566 4138 1362 3434 
Q 1159 2731 1159 2009 
Q 1159 1288 1364 580 
Q 1569 -128 1984 -844 
L 1484 -844 
Q 1016 -109 783 600 
Q 550 1309 550 2009 
Q 550 2706 781 3412 
Q 1013 4119 1484 4856 
L 1984 4856 
z
" transform="scale(0.015625)"/>
       <path id="DejaVuSans-29" d="M 513 4856 
L 1013 4856 
Q 1481 4119 1714 3412 
Q 1947 2706 1947 2009 
Q 1947 1309 1714 600 
Q 1481 -109 1013 -844 
L 513 -844 
Q 928 -128 1133 580 
Q 1338 1288 1338 2009 
Q 1338 2731 1133 3434 
Q 928 4138 513 4856 
z
" transform="scale(0.015625)"/>
      </defs>
      <use xlink:href="#DejaVuSans-6e"/>
      <use xlink:href="#DejaVuSans-2e" transform="translate(63.378906 0)"/>
      <use xlink:href="#DejaVuSans-73" transform="translate(95.166016 0)"/>
      <use xlink:href="#DejaVuSans-2e" transform="translate(147.265625 0)"/>
      <use xlink:href="#DejaVuSans-20" transform="translate(179.052734 0)"/>
      <use xlink:href="#DejaVuSans-28" transform="translate(210.839844 0)"/>
      <use xlink:href="#DejaVuSans-61" transform="translate(249.853516 0)"/>
      <use xlink:href="#DejaVuSans-74" transform="translate(311.132812 0)"/>
      <use xlink:href="#DejaVuSans-20" transform="translate(350.341797 0)"/>
      <use xlink:href="#DejaVuSans-63" transform="translate(382.128906 0)"/>
      <use xlink:href="#DejaVuSans-68" transform="translate(437.109375 0)"/>
      <use xlink:href="#DejaVuSans-61" transform="translate(500.488281 0)"/>
      <use xlink:href="#DejaVuSans-6e" transform="translate(561.767578 0)"/>
      <use xlink:href="#DejaVuSans-63" transform="translate(625.146484 0)"/>
      <use xlink:href="#DejaVuSans-65" transform="translate(680.126953 0)"/>
      <use xlink:href="#DejaVuSans-29" transform="translate(741.650391 0)"/>
     </g>
    </g>
   </g>
   <g id="text_30">
    <!-- SELF  (wrote the genuine passage) -->
    <g style="fill: #1a1a1a" transform="translate(7.2 56.806089) scale(0.105 -0.105)">
     <defs>
      <path id="DejaVuSans-Bold-53" d="M 3834 4519 
L 3834 3531 
Q 3450 3703 3084 3790 
Q 2719 3878 2394 3878 
Q 1963 3878 1756 3759 
Q 1550 3641 1550 3391 
Q 1550 3203 1689 3098 
Q 1828 2994 2194 2919 
L 2706 2816 
Q 3484 2659 3812 2340 
Q 4141 2022 4141 1434 
Q 4141 663 3683 286 
Q 3225 -91 2284 -91 
Q 1841 -91 1394 -6 
Q 947 78 500 244 
L 500 1259 
Q 947 1022 1364 901 
Q 1781 781 2169 781 
Q 2563 781 2772 912 
Q 2981 1044 2981 1288 
Q 2981 1506 2839 1625 
Q 2697 1744 2272 1838 
L 1806 1941 
Q 1106 2091 782 2419 
Q 459 2747 459 3303 
Q 459 4000 909 4375 
Q 1359 4750 2203 4750 
Q 2588 4750 2994 4692 
Q 3400 4634 3834 4519 
z
" transform="scale(0.015625)"/>
      <path id="DejaVuSans-Bold-45" d="M 588 4666 
L 3834 4666 
L 3834 3756 
L 1791 3756 
L 1791 2888 
L 3713 2888 
L 3713 1978 
L 1791 1978 
L 1791 909 
L 3903 909 
L 3903 0 
L 588 0 
L 588 4666 
z
" transform="scale(0.015625)"/>
      <path id="DejaVuSans-Bold-4c" d="M 588 4666 
L 1791 4666 
L 1791 909 
L 3903 909 
L 3903 0 
L 588 0 
L 588 4666 
z
" transform="scale(0.015625)"/>
      <path id="DejaVuSans-Bold-46" d="M 588 4666 
L 3834 4666 
L 3834 3756 
L 1791 3756 
L 1791 2888 
L 3713 2888 
L 3713 1978 
L 1791 1978 
L 1791 0 
L 588 0 
L 588 4666 
z
" transform="scale(0.015625)"/>
      <path id="DejaVuSans-Bold-28" d="M 2413 -844 
L 1484 -844 
Q 1006 -72 778 623 
Q 550 1319 550 2003 
Q 550 2688 779 3389 
Q 1009 4091 1484 4856 
L 2413 4856 
Q 2013 4116 1813 3408 
Q 1613 2700 1613 2009 
Q 1613 1319 1811 609 
Q 2009 -100 2413 -844 
z
" transform="scale(0.015625)"/>
      <path id="DejaVuSans-Bold-70" d="M 1656 506 
L 1656 -1331 
L 538 -1331 
L 538 3500 
L 1656 3500 
L 1656 2988 
Q 1888 3294 2169 3439 
Q 2450 3584 2816 3584 
Q 3463 3584 3878 3070 
Q 4294 2556 4294 1747 
Q 4294 938 3878 423 
Q 3463 -91 2816 -91 
Q 2450 -91 2169 54 
Q 1888 200 1656 506 
z
M 2400 2772 
Q 2041 2772 1848 2508 
Q 1656 2244 1656 1747 
Q 1656 1250 1848 986 
Q 2041 722 2400 722 
Q 2759 722 2948 984 
Q 3138 1247 3138 1747 
Q 3138 2247 2948 2509 
Q 2759 2772 2400 2772 
z
" transform="scale(0.015625)"/>
      <path id="DejaVuSans-Bold-29" d="M 513 -844 
Q 913 -100 1113 609 
Q 1313 1319 1313 2009 
Q 1313 2700 1113 3408 
Q 913 4116 513 4856 
L 1441 4856 
Q 1916 4091 2145 3389 
Q 2375 2688 2375 2003 
Q 2375 1319 2147 623 
Q 1919 -72 1441 -844 
L 513 -844 
z
" transform="scale(0.015625)"/>
     </defs>
     <use xlink:href="#DejaVuSans-Bold-53"/>
     <use xlink:href="#DejaVuSans-Bold-45" transform="translate(72.021484 0)"/>
     <use xlink:href="#DejaVuSans-Bold-4c" transform="translate(140.332031 0)"/>
     <use xlink:href="#DejaVuSans-Bold-46" transform="translate(204.052734 0)"/>
     <use xlink:href="#DejaVuSans-Bold-20" transform="translate(272.363281 0)"/>
     <use xlink:href="#DejaVuSans-Bold-20" transform="translate(307.177734 0)"/>
     <use xlink:href="#DejaVuSans-Bold-28" transform="translate(341.992188 0)"/>
     <use xlink:href="#DejaVuSans-Bold-77" transform="translate(387.695312 0)"/>
     <use xlink:href="#DejaVuSans-Bold-72" transform="translate(480.078125 0)"/>
     <use xlink:href="#DejaVuSans-Bold-6f" transform="translate(529.394531 0)"/>
     <use xlink:href="#DejaVuSans-Bold-74" transform="translate(598.095703 0)"/>
     <use xlink:href="#DejaVuSans-Bold-65" transform="translate(645.898438 0)"/>
     <use xlink:href="#DejaVuSans-Bold-20" transform="translate(713.720703 0)"/>
     <use xlink:href="#DejaVuSans-Bold-74" transform="translate(748.535156 0)"/>
     <use xlink:href="#DejaVuSans-Bold-68" transform="translate(796.337891 0)"/>
     <use xlink:href="#DejaVuSans-Bold-65" transform="translate(867.529297 0)"/>
     <use xlink:href="#DejaVuSans-Bold-20" transform="translate(935.351562 0)"/>
     <use xlink:href="#DejaVuSans-Bold-67" transform="translate(970.166016 0)"/>
     <use xlink:href="#DejaVuSans-Bold-65" transform="translate(1041.748047 0)"/>
     <use xlink:href="#DejaVuSans-Bold-6e" transform="translate(1109.570312 0)"/>
     <use xlink:href="#DejaVuSans-Bold-75" transform="translate(1180.761719 0)"/>
     <use xlink:href="#DejaVuSans-Bold-69" transform="translate(1251.953125 0)"/>
     <use xlink:href="#DejaVuSans-Bold-6e" transform="translate(1286.230469 0)"/>
     <use xlink:href="#DejaVuSans-Bold-65" transform="translate(1357.421875 0)"/>
     <use xlink:href="#DejaVuSans-Bold-20" transform="translate(1425.244141 0)"/>
     <use xlink:href="#DejaVuSans-Bold-70" transform="translate(1460.058594 0)"/>
     <use xlink:href="#DejaVuSans-Bold-61" transform="translate(1531.640625 0)"/>
     <use xlink:href="#DejaVuSans-Bold-73" transform="translate(1599.121094 0)"/>
     <use xlink:href="#DejaVuSans-Bold-73" transform="translate(1658.642578 0)"/>
     <use xlink:href="#DejaVuSans-Bold-61" transform="translate(1718.164062 0)"/>
     <use xlink:href="#DejaVuSans-Bold-67" transform="translate(1785.644531 0)"/>
     <use xlink:href="#DejaVuSans-Bold-65" transform="translate(1857.226562 0)"/>
     <use xlink:href="#DejaVuSans-Bold-29" transform="translate(1925.048828 0)"/>
    </g>
   </g>
   <g id="text_31">
    <!-- FORGER  (wrote the forgery) -->
    <g style="fill: #1a1a1a" transform="translate(7.2 180.093868) scale(0.105 -0.105)">
     <defs>
      <path id="DejaVuSans-Bold-4f" d="M 2719 3878 
Q 2169 3878 1866 3472 
Q 1563 3066 1563 2328 
Q 1563 1594 1866 1187 
Q 2169 781 2719 781 
Q 3272 781 3575 1187 
Q 3878 1594 3878 2328 
Q 3878 3066 3575 3472 
Q 3272 3878 2719 3878 
z
M 2719 4750 
Q 3844 4750 4481 4106 
Q 5119 3463 5119 2328 
Q 5119 1197 4481 553 
Q 3844 -91 2719 -91 
Q 1597 -91 958 553 
Q 319 1197 319 2328 
Q 319 3463 958 4106 
Q 1597 4750 2719 4750 
z
" transform="scale(0.015625)"/>
      <path id="DejaVuSans-Bold-52" d="M 2297 2597 
Q 2675 2597 2839 2737 
Q 3003 2878 3003 3200 
Q 3003 3519 2839 3656 
Q 2675 3794 2297 3794 
L 1791 3794 
L 1791 2597 
L 2297 2597 
z
M 1791 1766 
L 1791 0 
L 588 0 
L 588 4666 
L 2425 4666 
Q 3347 4666 3776 4356 
Q 4206 4047 4206 3378 
Q 4206 2916 3982 2619 
Q 3759 2322 3309 2181 
Q 3556 2125 3751 1926 
Q 3947 1728 4147 1325 
L 4800 0 
L 3519 0 
L 2950 1159 
Q 2778 1509 2601 1637 
Q 2425 1766 2131 1766 
L 1791 1766 
z
" transform="scale(0.015625)"/>
      <path id="DejaVuSans-Bold-47" d="M 4781 347 
Q 4331 128 3847 18 
Q 3363 -91 2847 -91 
Q 1681 -91 1000 561 
Q 319 1213 319 2328 
Q 319 3456 1012 4103 
Q 1706 4750 2913 4750 
Q 3378 4750 3804 4662 
Q 4231 4575 4609 4403 
L 4609 3438 
Q 4219 3659 3833 3768 
Q 3447 3878 3059 3878 
Q 2341 3878 1952 3476 
Q 1563 3075 1563 2328 
Q 1563 1588 1938 1184 
Q 2313 781 3003 781 
Q 3191 781 3352 804 
Q 3513 828 3641 878 
L 3641 1784 
L 2906 1784 
L 2906 2591 
L 4781 2591 
L 4781 347 
z
" transform="scale(0.015625)"/>
     </defs>
     <use xlink:href="#DejaVuSans-Bold-46"/>
     <use xlink:href="#DejaVuSans-Bold-4f" transform="translate(68.310547 0)"/>
     <use xlink:href="#DejaVuSans-Bold-52" transform="translate(153.320312 0)"/>
     <use xlink:href="#DejaVuSans-Bold-47" transform="translate(230.322266 0)"/>
     <use xlink:href="#DejaVuSans-Bold-45" transform="translate(312.402344 0)"/>
     <use xlink:href="#DejaVuSans-Bold-52" transform="translate(380.712891 0)"/>
     <use xlink:href="#DejaVuSans-Bold-20" transform="translate(457.714844 0)"/>
     <use xlink:href="#DejaVuSans-Bold-20" transform="translate(492.529297 0)"/>
     <use xlink:href="#DejaVuSans-Bold-28" transform="translate(527.34375 0)"/>
     <use xlink:href="#DejaVuSans-Bold-77" transform="translate(573.046875 0)"/>
     <use xlink:href="#DejaVuSans-Bold-72" transform="translate(665.429688 0)"/>
     <use xlink:href="#DejaVuSans-Bold-6f" transform="translate(714.746094 0)"/>
     <use xlink:href="#DejaVuSans-Bold-74" transform="translate(783.447266 0)"/>
     <use xlink:href="#DejaVuSans-Bold-65" transform="translate(831.25 0)"/>
     <use xlink:href="#DejaVuSans-Bold-20" transform="translate(899.072266 0)"/>
     <use xlink:href="#DejaVuSans-Bold-74" transform="translate(933.886719 0)"/>
     <use xlink:href="#DejaVuSans-Bold-68" transform="translate(981.689453 0)"/>
     <use xlink:href="#DejaVuSans-Bold-65" transform="translate(1052.880859 0)"/>
     <use xlink:href="#DejaVuSans-Bold-20" transform="translate(1120.703125 0)"/>
     <use xlink:href="#DejaVuSans-Bold-66" transform="translate(1155.517578 0)"/>
     <use xlink:href="#DejaVuSans-Bold-6f" transform="translate(1199.023438 0)"/>
     <use xlink:href="#DejaVuSans-Bold-72" transform="translate(1267.724609 0)"/>
     <use xlink:href="#DejaVuSans-Bold-67" transform="translate(1317.041016 0)"/>
     <use xlink:href="#DejaVuSans-Bold-65" transform="translate(1388.623047 0)"/>
     <use xlink:href="#DejaVuSans-Bold-72" transform="translate(1456.445312 0)"/>
     <use xlink:href="#DejaVuSans-Bold-79" transform="translate(1505.761719 0)"/>
     <use xlink:href="#DejaVuSans-Bold-29" transform="translate(1570.947266 0)"/>
    </g>
   </g>
   <g id="text_32">
    <!-- NEUTRAL  (wrote neither) -->
    <g style="fill: #1a1a1a" transform="translate(7.2 303.422663) scale(0.105 -0.105)">
     <defs>
      <path id="DejaVuSans-Bold-4e" d="M 588 4666 
L 1931 4666 
L 3628 1466 
L 3628 4666 
L 4769 4666 
L 4769 0 
L 3425 0 
L 1728 3200 
L 1728 0 
L 588 0 
L 588 4666 
z
" transform="scale(0.015625)"/>
      <path id="DejaVuSans-Bold-55" d="M 588 4666 
L 1791 4666 
L 1791 1869 
Q 1791 1291 1980 1042 
Q 2169 794 2597 794 
Q 3028 794 3217 1042 
Q 3406 1291 3406 1869 
L 3406 4666 
L 4609 4666 
L 4609 1869 
Q 4609 878 4112 393 
Q 3616 -91 2597 -91 
Q 1581 -91 1084 393 
Q 588 878 588 1869 
L 588 4666 
z
" transform="scale(0.015625)"/>
      <path id="DejaVuSans-Bold-54" d="M 31 4666 
L 4331 4666 
L 4331 3756 
L 2784 3756 
L 2784 0 
L 1581 0 
L 1581 3756 
L 31 3756 
L 31 4666 
z
" transform="scale(0.015625)"/>
      <path id="DejaVuSans-Bold-41" d="M 3419 850 
L 1538 850 
L 1241 0 
L 31 0 
L 1759 4666 
L 3194 4666 
L 4922 0 
L 3713 0 
L 3419 850 
z
M 1838 1716 
L 3116 1716 
L 2478 3572 
L 1838 1716 
z
" transform="scale(0.015625)"/>
     </defs>
     <use xlink:href="#DejaVuSans-Bold-4e"/>
     <use xlink:href="#DejaVuSans-Bold-45" transform="translate(83.691406 0)"/>
     <use xlink:href="#DejaVuSans-Bold-55" transform="translate(152.001953 0)"/>
     <use xlink:href="#DejaVuSans-Bold-54" transform="translate(233.203125 0)"/>
     <use xlink:href="#DejaVuSans-Bold-52" transform="translate(301.416016 0)"/>
     <use xlink:href="#DejaVuSans-Bold-41" transform="translate(378.417969 0)"/>
     <use xlink:href="#DejaVuSans-Bold-4c" transform="translate(455.810547 0)"/>
     <use xlink:href="#DejaVuSans-Bold-20" transform="translate(519.53125 0)"/>
     <use xlink:href="#DejaVuSans-Bold-20" transform="translate(554.345703 0)"/>
     <use xlink:href="#DejaVuSans-Bold-28" transform="translate(589.160156 0)"/>
     <use xlink:href="#DejaVuSans-Bold-77" transform="translate(634.863281 0)"/>
     <use xlink:href="#DejaVuSans-Bold-72" transform="translate(727.246094 0)"/>
     <use xlink:href="#DejaVuSans-Bold-6f" transform="translate(776.5625 0)"/>
     <use xlink:href="#DejaVuSans-Bold-74" transform="translate(845.263672 0)"/>
     <use xlink:href="#DejaVuSans-Bold-65" transform="translate(893.066406 0)"/>
     <use xlink:href="#DejaVuSans-Bold-20" transform="translate(960.888672 0)"/>
     <use xlink:href="#DejaVuSans-Bold-6e" transform="translate(995.703125 0)"/>
     <use xlink:href="#DejaVuSans-Bold-65" transform="translate(1066.894531 0)"/>
     <use xlink:href="#DejaVuSans-Bold-69" transform="translate(1134.716797 0)"/>
     <use xlink:href="#DejaVuSans-Bold-74" transform="translate(1168.994141 0)"/>
     <use xlink:href="#DejaVuSans-Bold-68" transform="translate(1216.796875 0)"/>
     <use xlink:href="#DejaVuSans-Bold-65" transform="translate(1287.988281 0)"/>
     <use xlink:href="#DejaVuSans-Bold-72" transform="translate(1355.810547 0)"/>
     <use xlink:href="#DejaVuSans-Bold-29" transform="translate(1405.126953 0)"/>
    </g>
   </g>
   <g id="text_33">
    <!-- chance = 0.50 -->
    <g style="fill: #222222" transform="translate(340.954962 38.50743) scale(0.09 -0.09)">
     <defs>
      <path id="DejaVuSans-Bold-63" d="M 3366 3391 
L 3366 2478 
Q 3138 2634 2908 2709 
Q 2678 2784 2431 2784 
Q 1963 2784 1702 2511 
Q 1441 2238 1441 1747 
Q 1441 1256 1702 982 
Q 1963 709 2431 709 
Q 2694 709 2930 787 
Q 3166 866 3366 1019 
L 3366 103 
Q 3103 6 2833 -42 
Q 2563 -91 2291 -91 
Q 1344 -91 809 395 
Q 275 881 275 1747 
Q 275 2613 809 3098 
Q 1344 3584 2291 3584 
Q 2566 3584 2833 3536 
Q 3100 3488 3366 3391 
z
" transform="scale(0.015625)"/>
      <path id="DejaVuSans-Bold-3d" d="M 678 3084 
L 4684 3084 
L 4684 2350 
L 678 2350 
L 678 3084 
z
M 678 1663 
L 4684 1663 
L 4684 922 
L 678 922 
L 678 1663 
z
" transform="scale(0.015625)"/>
     </defs>
     <use xlink:href="#DejaVuSans-Bold-63"/>
     <use xlink:href="#DejaVuSans-Bold-68" transform="translate(59.277344 0)"/>
     <use xlink:href="#DejaVuSans-Bold-61" transform="translate(130.46875 0)"/>
     <use xlink:href="#DejaVuSans-Bold-6e" transform="translate(197.949219 0)"/>
     <use xlink:href="#DejaVuSans-Bold-63" transform="translate(269.140625 0)"/>
     <use xlink:href="#DejaVuSans-Bold-65" transform="translate(328.417969 0)"/>
     <use xlink:href="#DejaVuSans-Bold-20" transform="translate(396.240234 0)"/>
     <use xlink:href="#DejaVuSans-Bold-3d" transform="translate(431.054688 0)"/>
     <use xlink:href="#DejaVuSans-Bold-20" transform="translate(514.84375 0)"/>
     <use xlink:href="#DejaVuSans-Bold-30" transform="translate(549.658203 0)"/>
     <use xlink:href="#DejaVuSans-Bold-2e" transform="translate(619.238281 0)"/>
     <use xlink:href="#DejaVuSans-Bold-35" transform="translate(657.226562 0)"/>
     <use xlink:href="#DejaVuSans-Bold-30" transform="translate(726.806641 0)"/>
    </g>
   </g>
   <g id="text_34">
    <!-- ← fooled by the forgery -->
    <g style="fill: #b03030" transform="translate(192.605815 413.895031) scale(0.105 -0.105)">
     <defs>
      <path id="DejaVuSans-BoldOblique-2190" d="M 313 1788 
L 313 2225 
L 1541 3453 
L 1994 3000 
L 1375 2381 
L 4997 2381 
L 4997 1631 
L 1375 1631 
L 1994 1013 
L 1541 559 
L 313 1788 
z
" transform="scale(0.015625)"/>
      <path id="DejaVuSans-BoldOblique-20" transform="scale(0.015625)"/>
      <path id="DejaVuSans-BoldOblique-66" d="M 3456 4863 
L 3309 4128 
L 2694 4128 
Q 2459 4128 2351 4042 
Q 2244 3956 2203 3747 
L 2150 3500 
L 3097 3500 
L 2944 2700 
L 1997 2700 
L 1472 0 
L 347 0 
L 872 2700 
L 319 2700 
L 475 3500 
L 1025 3500 
L 1075 3744 
Q 1191 4325 1556 4594 
Q 1922 4863 2597 4863 
L 3456 4863 
z
" transform="scale(0.015625)"/>
      <path id="DejaVuSans-BoldOblique-6f" d="M 2400 2784 
Q 1966 2784 1684 2390 
Q 1403 1997 1403 1388 
Q 1403 1056 1554 882 
Q 1706 709 1997 709 
Q 2431 709 2712 1104 
Q 2994 1500 2994 2113 
Q 2994 2441 2842 2612 
Q 2691 2784 2400 2784 
z
M 2491 3584 
Q 3272 3584 3719 3187 
Q 4166 2791 4166 2106 
Q 4166 1709 4025 1336 
Q 3884 963 3616 653 
Q 3297 284 2862 96 
Q 2428 -91 1894 -91 
Q 1122 -91 676 306 
Q 231 703 231 1388 
Q 231 1781 375 2157 
Q 519 2534 788 2847 
Q 1100 3209 1533 3396 
Q 1966 3584 2491 3584 
z
" transform="scale(0.015625)"/>
      <path id="DejaVuSans-BoldOblique-6c" d="M 1141 4863 
L 2266 4863 
L 1319 0 
L 197 0 
L 1141 4863 
z
" transform="scale(0.015625)"/>
      <path id="DejaVuSans-BoldOblique-65" d="M 4025 1619 
L 3988 1441 
L 1369 1441 
Q 1369 1422 1366 1386 
Q 1363 1350 1363 1331 
Q 1363 991 1567 822 
Q 1772 653 2181 653 
Q 2534 653 2926 759 
Q 3319 866 3750 1075 
L 3578 206 
Q 3169 56 2764 -17 
Q 2359 -91 1941 -91 
Q 1122 -91 676 287 
Q 231 666 231 1356 
Q 231 1756 373 2132 
Q 516 2509 788 2822 
Q 1109 3197 1557 3390 
Q 2006 3584 2553 3584 
Q 3263 3584 3680 3206 
Q 4097 2828 4097 2188 
Q 4097 2063 4080 1923 
Q 4063 1784 4025 1619 
z
M 2969 2131 
Q 2978 2172 2983 2214 
Q 2988 2256 2988 2297 
Q 2988 2547 2838 2694 
Q 2688 2841 2431 2841 
Q 2103 2841 1873 2661 
Q 1644 2481 1522 2131 
L 2969 2131 
z
" transform="scale(0.015625)"/>
      <path id="DejaVuSans-BoldOblique-64" d="M 1966 722 
Q 2397 722 2667 1119 
Q 2938 1516 2938 2156 
Q 2938 2447 2786 2609 
Q 2634 2772 2363 2772 
Q 1938 2772 1663 2380 
Q 1388 1988 1388 1375 
Q 1388 1056 1536 889 
Q 1684 722 1966 722 
z
M 3144 2988 
L 3506 4863 
L 4634 4863 
L 3688 0 
L 2559 0 
L 2663 506 
Q 2406 200 2125 54 
Q 1844 -91 1509 -91 
Q 919 -91 575 284 
Q 231 659 231 1306 
Q 231 1709 351 2090 
Q 472 2472 697 2784 
Q 981 3178 1339 3381 
Q 1697 3584 2106 3584 
Q 2466 3584 2717 3439 
Q 2969 3294 3144 2988 
z
" transform="scale(0.015625)"/>
      <path id="DejaVuSans-BoldOblique-62" d="M 2597 2772 
Q 2166 2772 1892 2373 
Q 1619 1975 1619 1338 
Q 1619 1050 1773 886 
Q 1928 722 2203 722 
Q 2625 722 2900 1114 
Q 3175 1506 3175 2119 
Q 3175 2438 3026 2605 
Q 2878 2772 2597 2772 
z
M 1422 506 
L 1319 0 
L 197 0 
L 1141 4863 
L 2266 4863 
L 1900 2988 
Q 2156 3294 2437 3439 
Q 2719 3584 3053 3584 
Q 3644 3584 3987 3209 
Q 4331 2834 4331 2188 
Q 4331 1784 4211 1403 
Q 4091 1022 3866 709 
Q 3581 316 3223 112 
Q 2866 -91 2456 -91 
Q 2097 -91 1845 54 
Q 1594 200 1422 506 
z
" transform="scale(0.015625)"/>
      <path id="DejaVuSans-BoldOblique-79" d="M 422 3500 
L 1478 3500 
L 1959 1075 
L 3200 3500 
L 4397 3500 
L 2181 -331 
Q 1809 -978 1493 -1179 
Q 1178 -1381 678 -1381 
L 0 -1381 
L 116 -647 
L 469 -647 
Q 744 -647 895 -555 
Q 1047 -463 1166 -231 
L 1269 -44 
L 422 3500 
z
" transform="scale(0.015625)"/>
      <path id="DejaVuSans-BoldOblique-74" d="M 2303 4494 
L 2113 3500 
L 3256 3500 
L 3097 2700 
L 1953 2700 
L 1666 1219 
Q 1653 1169 1648 1134 
Q 1644 1100 1644 1069 
Q 1644 925 1739 862 
Q 1834 800 2059 800 
L 2638 800 
L 2478 0 
L 1538 0 
Q 1031 0 765 212 
Q 500 425 500 825 
Q 500 913 509 1013 
Q 519 1113 538 1216 
L 825 2700 
L 275 2700 
L 428 3500 
L 984 3500 
L 1178 4494 
L 2303 4494 
z
" transform="scale(0.015625)"/>
      <path id="DejaVuSans-BoldOblique-68" d="M 4128 2131 
L 3713 0 
L 2591 0 
L 2944 1825 
Q 2981 2003 3001 2126 
Q 3022 2250 3022 2322 
Q 3022 2522 2911 2631 
Q 2800 2741 2597 2741 
Q 2250 2741 2001 2470 
Q 1753 2200 1656 1722 
L 1319 0 
L 197 0 
L 1141 4863 
L 2266 4863 
L 1900 2988 
Q 2209 3291 2521 3437 
Q 2834 3584 3175 3584 
Q 3659 3584 3921 3331 
Q 4184 3078 4184 2619 
Q 4184 2519 4170 2397 
Q 4156 2275 4128 2131 
z
" transform="scale(0.015625)"/>
      <path id="DejaVuSans-BoldOblique-72" d="M 3291 2547 
Q 3175 2613 3034 2647 
Q 2894 2681 2731 2681 
Q 2303 2681 2020 2406 
Q 1738 2131 1638 1613 
L 1319 0 
L 197 0 
L 878 3500 
L 2003 3500 
L 1881 2900 
Q 2103 3231 2436 3407 
Q 2769 3584 3175 3584 
Q 3234 3584 3309 3578 
Q 3384 3572 3488 3559 
L 3291 2547 
z
" transform="scale(0.015625)"/>
      <path id="DejaVuSans-BoldOblique-67" d="M 2675 594 
Q 2406 288 2128 144 
Q 1850 0 1522 0 
Q 928 0 583 383 
Q 238 766 238 1428 
Q 238 1781 358 2136 
Q 478 2491 703 2803 
Q 978 3181 1334 3379 
Q 1691 3578 2100 3578 
Q 2469 3578 2720 3434 
Q 2972 3291 3144 2981 
L 3238 3500 
L 4366 3500 
L 3775 459 
Q 3594 -481 3000 -931 
Q 2406 -1381 1350 -1381 
Q 1025 -1381 723 -1331 
Q 422 -1281 128 -1178 
L 294 -306 
Q 559 -475 825 -558 
Q 1091 -641 1369 -641 
Q 1925 -641 2223 -403 
Q 2522 -166 2625 353 
L 2675 594 
z
M 2363 2772 
Q 1950 2772 1676 2400 
Q 1403 2028 1403 1466 
Q 1403 1147 1550 980 
Q 1697 813 1978 813 
Q 2388 813 2663 1183 
Q 2938 1553 2938 2106 
Q 2938 2431 2791 2601 
Q 2644 2772 2363 2772 
z
" transform="scale(0.015625)"/>
     </defs>
     <use xlink:href="#DejaVuSans-BoldOblique-2190"/>
     <use xlink:href="#DejaVuSans-BoldOblique-20" transform="translate(83.789062 0)"/>
     <use xlink:href="#DejaVuSans-BoldOblique-66" transform="translate(118.603516 0)"/>
     <use xlink:href="#DejaVuSans-BoldOblique-6f" transform="translate(162.109375 0)"/>
     <use xlink:href="#DejaVuSans-BoldOblique-6f" transform="translate(230.810547 0)"/>
     <use xlink:href="#DejaVuSans-BoldOblique-6c" transform="translate(299.511719 0)"/>
     <use xlink:href="#DejaVuSans-BoldOblique-65" transform="translate(333.789062 0)"/>
     <use xlink:href="#DejaVuSans-BoldOblique-64" transform="translate(401.611328 0)"/>
     <use xlink:href="#DejaVuSans-BoldOblique-20" transform="translate(473.193359 0)"/>
     <use xlink:href="#DejaVuSans-BoldOblique-62" transform="translate(508.007812 0)"/>
     <use xlink:href="#DejaVuSans-BoldOblique-79" transform="translate(579.589844 0)"/>
     <use xlink:href="#DejaVuSans-BoldOblique-20" transform="translate(644.775391 0)"/>
     <use xlink:href="#DejaVuSans-BoldOblique-74" transform="translate(679.589844 0)"/>
     <use xlink:href="#DejaVuSans-BoldOblique-68" transform="translate(727.392578 0)"/>
     <use xlink:href="#DejaVuSans-BoldOblique-65" transform="translate(798.583984 0)"/>
     <use xlink:href="#DejaVuSans-BoldOblique-20" transform="translate(866.40625 0)"/>
     <use xlink:href="#DejaVuSans-BoldOblique-66" transform="translate(901.220703 0)"/>
     <use xlink:href="#DejaVuSans-BoldOblique-6f" transform="translate(944.726562 0)"/>
     <use xlink:href="#DejaVuSans-BoldOblique-72" transform="translate(1013.427734 0)"/>
     <use xlink:href="#DejaVuSans-BoldOblique-67" transform="translate(1062.744141 0)"/>
     <use xlink:href="#DejaVuSans-BoldOblique-65" transform="translate(1134.326172 0)"/>
     <use xlink:href="#DejaVuSans-BoldOblique-72" transform="translate(1202.148438 0)"/>
     <use xlink:href="#DejaVuSans-BoldOblique-79" transform="translate(1251.464844 0)"/>
    </g>
   </g>
   <g id="text_35">
    <!-- sees through the forgery → -->
    <g style="fill: #2c5f8a" transform="translate(344.322256 413.895031) scale(0.105 -0.105)">
     <defs>
      <path id="DejaVuSans-BoldOblique-73" d="M 3584 3391 
L 3419 2522 
Q 3091 2678 2766 2759 
Q 2441 2841 2150 2841 
Q 1819 2841 1639 2755 
Q 1459 2669 1459 2509 
Q 1459 2416 1559 2359 
Q 1659 2303 1953 2241 
L 2156 2203 
Q 2834 2059 3106 1832 
Q 3378 1606 3378 1203 
Q 3378 594 2900 251 
Q 2422 -91 1563 -91 
Q 1203 -91 828 -34 
Q 453 22 63 134 
L 231 1013 
Q 534 834 879 743 
Q 1225 653 1588 653 
Q 1941 653 2119 737 
Q 2297 822 2297 984 
Q 2297 1097 2197 1159 
Q 2097 1222 1784 1288 
L 1581 1325 
Q 981 1450 725 1694 
Q 469 1938 469 2369 
Q 469 2953 911 3268 
Q 1353 3584 2175 3584 
Q 2534 3584 2882 3536 
Q 3231 3488 3584 3391 
z
" transform="scale(0.015625)"/>
      <path id="DejaVuSans-BoldOblique-75" d="M 434 1363 
L 844 3500 
L 1966 3500 
L 1613 1678 
Q 1575 1500 1556 1375 
Q 1538 1250 1538 1178 
Q 1538 981 1647 872 
Q 1756 763 1959 763 
Q 2306 763 2556 1031 
Q 2806 1300 2900 1778 
L 3238 3500 
L 4359 3500 
L 3681 0 
L 2553 0 
L 2656 513 
Q 2369 209 2053 59 
Q 1738 -91 1388 -91 
Q 909 -91 646 162 
Q 384 416 384 878 
Q 384 988 396 1109 
Q 409 1231 434 1363 
z
" transform="scale(0.015625)"/>
      <path id="DejaVuSans-BoldOblique-2192" d="M 5050 2225 
L 5050 1788 
L 3822 559 
L 3369 1013 
L 3988 1631 
L 366 1631 
L 366 2381 
L 3988 2381 
L 3369 3000 
L 3822 3453 
L 5050 2225 
z
" transform="scale(0.015625)"/>
     </defs>
     <use xlink:href="#DejaVuSans-BoldOblique-73"/>
     <use xlink:href="#DejaVuSans-BoldOblique-65" transform="translate(59.521484 0)"/>
     <use xlink:href="#DejaVuSans-BoldOblique-65" transform="translate(127.34375 0)"/>
     <use xlink:href="#DejaVuSans-BoldOblique-73" transform="translate(195.166016 0)"/>
     <use xlink:href="#DejaVuSans-BoldOblique-20" transform="translate(254.6875 0)"/>
     <use xlink:href="#DejaVuSans-BoldOblique-74" transform="translate(289.501953 0)"/>
     <use xlink:href="#DejaVuSans-BoldOblique-68" transform="translate(337.304688 0)"/>
     <use xlink:href="#DejaVuSans-BoldOblique-72" transform="translate(408.496094 0)"/>
     <use xlink:href="#DejaVuSans-BoldOblique-6f" transform="translate(457.8125 0)"/>
     <use xlink:href="#DejaVuSans-BoldOblique-75" transform="translate(526.513672 0)"/>
     <use xlink:href="#DejaVuSans-BoldOblique-67" transform="translate(597.705078 0)"/>
     <use xlink:href="#DejaVuSans-BoldOblique-68" transform="translate(669.287109 0)"/>
     <use xlink:href="#DejaVuSans-BoldOblique-20" transform="translate(740.478516 0)"/>
     <use xlink:href="#DejaVuSans-BoldOblique-74" transform="translate(775.292969 0)"/>
     <use xlink:href="#DejaVuSans-BoldOblique-68" transform="translate(823.095703 0)"/>
     <use xlink:href="#DejaVuSans-BoldOblique-65" transform="translate(894.287109 0)"/>
     <use xlink:href="#DejaVuSans-BoldOblique-20" transform="translate(962.109375 0)"/>
     <use xlink:href="#DejaVuSans-BoldOblique-66" transform="translate(996.923828 0)"/>
     <use xlink:href="#DejaVuSans-BoldOblique-6f" transform="translate(1040.429688 0)"/>
     <use xlink:href="#DejaVuSans-BoldOblique-72" transform="translate(1109.130859 0)"/>
     <use xlink:href="#DejaVuSans-BoldOblique-67" transform="translate(1158.447266 0)"/>
     <use xlink:href="#DejaVuSans-BoldOblique-65" transform="translate(1230.029297 0)"/>
     <use xlink:href="#DejaVuSans-BoldOblique-72" transform="translate(1297.851562 0)"/>
     <use xlink:href="#DejaVuSans-BoldOblique-79" transform="translate(1347.167969 0)"/>
     <use xlink:href="#DejaVuSans-BoldOblique-20" transform="translate(1412.353516 0)"/>
     <use xlink:href="#DejaVuSans-BoldOblique-2192" transform="translate(1447.167969 0)"/>
    </g>
   </g>
  </g>
 </g>
 <defs>
  <clipPath id="p412aa9ed23">
   <rect x="113.101398" y="28.698047" width="415.2996" height="398.68"/>
  </clipPath>
 </defs>
</svg>
